<svg width="646" height="485" viewBox="0 0 646 485" fill="none" xmlns="http://www.w3.org/2000/svg">
<g clip-path="url(#clip0_31_10)">
<path opacity="0.04" d="M579.477 159.236C578.102 160.52 576.792 161.307 575.571 162.463C576.498 161.153 577.486 160.056 578.651 158.747C583.373 153.82 588.941 149.543 595.029 146.131C593.644 146.833 592.193 147.436 590.847 148.233C589.498 149.025 588.119 149.783 586.784 150.613C589.253 148.92 591.947 147.223 594.362 145.871C595.743 144.997 597.105 144.279 598.45 143.566L600.453 142.482C601.123 142.125 601.83 141.845 602.531 141.522C601.793 141.75 601.038 141.928 600.318 142.188L598.154 142.978L595.97 143.799C595.239 144.085 594.54 144.461 593.812 144.81C589.028 147.059 584.487 150.108 580.326 153.519C575.619 157.38 571.34 161.837 567.823 166.869C564.283 171.829 561.435 177.536 559.378 182.908C558.115 186.08 557.521 189.172 556.546 192.174C554.959 194.311 553.338 196.365 551.623 198.111L551.739 197.966C550.019 200.836 548.014 203.243 545.736 204.844C543.452 206.464 540.924 207.34 538.078 207.511C535.204 207.692 531.922 207.128 528.443 206.359C524.947 205.589 521.233 204.566 517.089 203.901C513.264 203.301 508.883 203.015 504.342 204.141C503.219 204.394 502.116 204.858 501.011 205.238C499.937 205.699 498.899 206.2 497.891 206.81C495.851 207.995 494.034 209.596 492.454 211.322C490.898 213.082 489.689 215.008 488.67 216.942C487.747 218.813 486.97 220.752 486.346 222.742C485.14 226.572 484.472 230.244 483.852 233.778C482.861 239.63 482.013 245.064 480.622 249.888C479.251 254.719 477.321 258.735 474.679 261.256C472.062 263.827 468.766 265.146 464.335 265.481C459.935 265.824 454.802 265.165 449.421 264.288C444.011 263.432 438.338 262.296 432.091 261.818C428.971 261.588 425.698 261.524 422.267 261.885C418.849 262.245 415.243 263.065 411.79 264.615C408.907 265.92 406.152 267.645 403.816 269.83C401.459 271.997 399.494 274.54 397.972 277.165C394.904 282.466 393.517 287.876 392.518 292.878C391.527 297.918 390.988 302.673 390.291 307.158C389.596 311.602 388.796 315.82 387.446 319.258C384.789 326.185 380.221 329.482 372.868 329.798C369.196 329.976 364.956 329.384 360.511 328.604C356.058 327.821 351.322 326.81 346.221 326.145C341.123 325.515 335.478 325.178 329.471 326.495C326.492 327.155 323.459 328.27 320.711 329.887C317.953 331.478 315.457 333.54 313.389 335.816C309.227 340.411 306.765 345.546 304.833 350.303C302.911 355.096 301.513 359.687 299.998 363.909C298.498 368.123 296.891 371.998 294.892 375C292.892 378.02 290.596 380.015 287.734 381.26C284.854 382.48 281.183 382.936 277.002 382.902C272.821 382.882 268.221 382.407 263.242 382.145C257.946 381.875 251.981 381.798 245.683 383.566C244.901 383.799 244.119 384.002 243.343 384.274L241.031 385.252C239.458 385.848 238.075 386.812 236.634 387.662C235.899 388.076 235.247 388.587 234.609 389.115L232.681 390.689C231.473 391.789 230.396 392.986 229.301 394.163C225.234 399.045 222.691 404.266 220.521 409.133C218.368 414.023 216.597 418.693 214.624 422.893C212.663 427.093 210.498 430.793 207.918 433.569C205.361 436.394 202.043 438.484 198.223 440.157C194.403 441.826 190.028 442.947 185.399 443.807C180.769 444.677 175.889 445.295 170.837 445.983C167.24 446.488 163.517 446.981 159.369 447.923C155.342 448.827 151.403 450.155 147.611 451.783C143.824 453.415 140.187 455.389 136.894 457.833C133.614 460.275 130.59 463.007 128.268 466.26C127.335 467.464 126.633 468.806 125.937 469.97C125.324 471.22 124.848 472.455 124.414 473.571C124.062 474.741 123.834 475.86 123.631 476.864C123.395 477.858 123.461 478.838 123.424 479.673C123.36 481.005 123.567 482.336 124.032 483.585C124.372 484.507 124.765 485.049 125.187 485.257C126.03 485.672 126.994 484.752 127.996 482.913L128.371 482.18L128.863 481.38C129.2 480.823 129.543 480.215 129.891 479.56C130.747 478.294 131.633 476.84 132.911 475.375C135.668 472.062 139.515 469.708 144.361 466.849C148.156 464.644 152.388 462.869 156.821 461.569C161.288 460.229 165.758 459.53 170.758 458.931C180.578 457.678 190.961 456.911 201.283 453.568C204.777 452.394 208.383 450.85 211.78 448.593C215.176 446.355 218.303 443.445 220.918 440.185C223.481 436.913 225.451 433.425 227.204 429.985C228.909 426.536 230.348 423.152 231.761 419.903C234.379 413.853 236.987 408.144 240.396 404.183C240.786 403.627 241.271 403.256 241.706 402.8C242.149 402.363 242.566 401.885 243.067 401.568L244.479 400.481C244.999 400.206 245.509 399.924 246.009 399.63C248.081 398.598 250.312 397.897 252.959 397.62C255.606 397.352 258.502 397.362 261.59 397.55L271.48 398.348C275 398.589 278.726 398.731 282.71 398.437C286.702 398.114 291.046 397.147 295.15 395.21C298.581 393.658 301.694 391.309 304.2 388.625C306.724 385.945 308.664 382.99 310.21 380.075C313.274 374.213 314.957 368.514 316.677 363.271C318.364 358.046 319.995 353.141 322.249 349.357C324.491 345.55 327.194 343.029 330.811 341.713C335.213 339.997 341.323 340.561 347.729 341.578C352.659 342.34 357.869 343.465 363.536 344.165C366.372 344.509 369.339 344.742 372.462 344.66C375.577 344.575 378.877 344.157 382.155 343.129C385.433 342.109 388.621 340.453 391.345 338.286C394.092 336.13 396.409 333.415 398.138 330.554C401.612 324.769 402.971 318.794 403.964 313.306C404.926 307.782 405.431 302.536 406.244 297.636C407.044 292.756 408.144 288.194 410.062 284.649C411.944 281.125 414.699 278.586 418.242 277.133C421.79 275.697 426.262 275.396 431.028 275.708C438.344 276.181 446.172 278.056 454.714 278.936C458.984 279.369 463.529 279.536 468.289 278.766C473.012 277.998 478.029 276.036 481.9 272.713C483.847 271.146 485.535 269.235 486.91 267.229C488.321 265.227 489.388 263.096 490.245 260.977C491.978 256.719 492.82 252.508 493.475 248.453C494.722 240.387 494.993 232.628 496.795 225.946C497.711 222.652 499.007 219.721 500.978 217.679C501.956 216.643 503.062 215.753 504.398 215.103C504.715 214.905 505.05 214.767 505.394 214.652L506.41 214.252C507.116 214.042 507.85 213.884 508.593 213.727C511.642 213.26 515.145 213.623 518.811 214.297C522.491 214.958 526.343 215.939 530.529 216.519C533.145 216.909 535.945 217.048 538.801 216.85C541.682 216.61 544.614 215.79 547.291 214.545C549.955 213.21 552.303 211.385 554.294 209.336C556.26 207.264 557.814 204.981 559.2 202.68C564.54 193.418 566.762 183.561 571.485 175.62C580.85 159.408 598.118 147.81 616.713 144.792C621.439 144.109 626.067 143.37 630.833 143.546C627.32 142.536 623.919 141.65 619.663 141.401C619.043 141.368 617.877 141.439 616.571 141.575L612.64 142.247C614.067 141.976 615.542 141.667 616.997 141.441C618.406 141.29 619.811 141.109 621.212 140.898C623.068 140.678 624.856 140.568 626.628 140.372C628.398 140.312 630.158 140.292 631.963 140.262C624.496 138.882 616.688 138.88 608.88 140.286C608.59 140.353 607.028 141.131 605.708 141.658C604.801 142.051 603.805 142.452 602.786 142.857L601.246 143.464L599.764 144.178C598.299 145.123 596.815 145.95 595.392 147.033C593.953 148.079 592.407 149.051 590.848 150.293C590.053 150.889 589.221 151.493 588.338 152.111C587.49 152.776 586.6 153.47 585.663 154.204L584.196 155.299L582.715 156.541C581.718 157.418 580.552 158.211 579.477 159.236ZM415.292 270.587C418.227 269.201 421.848 268.604 425.236 268.47C425.878 268.448 426.499 268.588 427.12 268.706C424.068 268.846 421.025 269.283 418.096 270.224C416.457 270.788 414.776 271.443 413.266 272.361C412.585 272.777 411.939 273.248 411.334 273.768L410.396 274.526L409.488 275.366C407.228 277.412 405.443 279.949 404.146 282.706C402.829 285.456 401.931 288.396 401.259 291.374C401.127 291.408 400.867 291.516 400.879 291.467C401.629 288.127 402.625 284.807 404.213 281.739C405.819 278.698 407.992 275.872 410.823 273.819C411.228 273.526 411.663 273.239 412.11 272.964L413.52 272.262C414.023 271.646 414.183 271.147 415.292 270.587ZM495.468 216.579C496.57 215.088 497.874 213.764 499.38 212.715C497.961 214.001 497.006 215.632 495.946 217.121C492.899 221.591 491.67 227.036 490.755 232.371C489.857 237.746 489.328 243.2 488.304 248.597C487.276 253.96 485.766 259.42 482.544 263.994C479.374 268.583 474.324 271.763 468.888 272.854C464.921 273.727 460.846 273.674 456.85 273.377C452.847 273.04 448.89 272.399 444.95 271.743C443.448 271.489 441.988 271.091 440.507 270.766C442.027 270.93 443.545 271.036 445.067 271.283C448.977 271.911 452.9 272.554 456.847 272.895C460.784 273.189 464.788 273.249 468.615 272.371C469.69 272.169 470.732 271.708 471.666 271.276C472.568 270.752 473.383 270.293 473.935 269.793C474.54 269.3 473.675 269.388 473.487 269.208C475.67 268.449 477.961 266.992 479.495 265.768C480.868 264.705 481.692 264.234 482.701 263.358C483.49 261.598 484.124 259.819 484.521 257.98C484.716 257.001 484.821 256 484.932 255.017L485.491 253.851C485.196 255.311 484.861 256.771 484.395 258.187C486.273 255.883 487.335 252.376 487.887 248.694C488.471 245.002 488.631 241.09 489.157 237.532L488.171 237.772L488.403 236.157L489.159 237.686C489.669 234.052 490.226 230.399 491.107 226.799C492.022 223.219 493.287 219.642 495.468 216.579ZM526.633 212.05C520.664 210.727 514.673 208.814 508.502 209.4C511.939 208.936 515.443 209.296 518.862 209.859C522.29 210.426 525.676 211.212 529.082 211.765C530.119 211.945 531.227 212.15 532.289 212.295C535.991 212.823 539.839 212.947 543.423 211.752C539.563 213.376 535.175 213.444 531.54 213.162C529.32 212.742 528.015 212.363 526.633 212.05ZM389.437 331.26C392.517 327.939 394.462 323.796 395.645 319.526C396.719 315.821 397.324 311.988 397.855 308.166L398.755 301.234C398.675 303.389 398.757 305.32 398.501 307.75C398.293 309.743 398.006 311.728 397.643 313.698C397.248 315.845 396.743 318.204 395.902 320.846C394.803 323.862 392.754 328.084 389.437 331.259V331.26ZM555.937 199.83C557.69 196.185 558.919 192.452 560.332 188.437C560.68 187.437 561.777 185.663 562.537 184.241C561.482 187.625 560.523 191.012 559.136 194.93C558.602 195.849 558.04 196.752 557.451 197.636C556.95 198.44 556.44 199.136 555.938 199.831L555.937 199.83ZM328.994 331.114C332.15 330.114 335.686 329.562 338.506 329.677C343.563 329.874 347.918 330.975 352.295 332.02C350.748 331.832 349.185 331.665 348.076 331.56C341.626 330.317 335.39 329.628 328.994 331.114ZM410.898 270.639C414.276 268.309 418.101 266.69 422.311 266.129C424.36 265.807 427.091 266.207 429.401 266.507C426.016 266.486 422.551 266.822 419.831 267.486C416.068 268.134 413.363 269.215 410.898 270.639ZM410.751 267.407C407.909 268.97 405.367 271.025 403.244 273.477C401.13 275.913 399.517 278.656 398.294 281.411C397.99 282.111 397.664 282.811 397.313 283.515L396.379 285.632C397.012 283.526 397.803 281.4 398.786 279.362C399.824 277.34 400.962 275.38 402.348 273.71C405.374 270.406 408.05 268.75 410.751 267.407ZM333.667 332.526C335 332.255 336.444 331.96 337.695 331.966C342.657 331.986 347.375 332.932 352.035 333.88C349.432 333.49 346.819 333.077 343.149 332.798C340.56 332.463 337.133 332.203 333.667 332.526ZM450.615 269.077C453.189 269.347 455.789 269.424 458.197 269.608C460.887 269.812 463.428 270.072 465.96 269.915C463.7 270.315 461.324 270.468 458.76 270.451C455.803 270.103 453.22 269.619 450.615 269.077ZM536.777 208.279L537.899 208.182L538.954 207.962C539.3 207.885 539.659 207.847 539.988 207.758C540.312 207.653 540.632 207.56 540.956 207.484C543.14 206.92 545.185 205.987 547.031 204.495C545.714 205.71 544.348 206.848 542.329 207.645C541.927 207.818 541.482 207.881 541.04 207.963C540.592 208.03 540.17 208.175 539.694 208.199C538.748 208.262 537.801 208.361 536.777 208.279ZM478.367 258.085C478.596 257.41 478.797 256.549 479.003 256.061C480.665 252.62 481.756 248.459 482.663 244.053C482.373 246.283 482.101 248.512 481.378 251.773C480.692 253.712 479.658 256.123 478.368 258.085H478.367ZM396.533 295.253C396.275 296.653 395.814 297.913 395.469 299.232C395.703 296.944 395.922 294.66 396.386 292.258C396.676 290.969 397.072 289.506 398.609 285.684C398.029 287.599 397.562 289.545 397.209 291.514L396.533 295.254V295.253ZM417.049 264.66C419.369 263.93 421.694 263.531 423.966 263.334C426.179 263.225 428.336 263.341 430.4 263.563C428.243 263.509 426.007 263.6 423.482 263.87C421.342 263.96 419.209 264.171 417.049 264.66ZM568.353 169.798C568.936 168.658 569.669 167.642 570.331 166.551C571.008 165.47 571.714 164.381 572.603 163.37C573.502 162.344 574.807 161.122 576.069 160.15C574.937 161.425 574.015 162.886 572.823 164.463C571.893 165.351 571.209 166.328 570.45 167.187C569.739 168.081 568.96 168.877 568.353 169.798ZM238.144 392.55C236.864 393.51 235.526 394.31 234.477 395.344C233.921 395.84 233.37 396.329 232.817 396.82C232.307 397.34 231.83 397.886 231.33 398.433C231.83 397.778 232.265 397.047 232.834 396.41C233.371 395.796 233.928 395.2 234.504 394.622C236.981 392.49 239.561 390.327 245 388.546L242.325 389.835C241.539 390.179 240.978 390.682 240.436 391.006C239.402 391.735 238.631 392.136 238.144 392.55ZM471.684 268.13C472.221 267.888 472.696 267.518 473.18 267.2C473.678 266.906 474.108 266.53 474.562 266.25C475.076 265.961 475.543 265.646 476.025 265.348L476.759 264.913L477.438 264.399L476.894 265.062L476.259 265.688L475.571 266.373L474.737 267.044C474.187 267.329 473.656 267.521 473.148 267.684C472.649 267.869 472.182 268.031 471.684 268.129V268.13ZM392.919 301.87C393.204 299.89 393.597 297.897 394.012 295.858C393.892 297.083 393.878 298.227 393.709 299.488C393.422 301.716 393.085 303.964 392.762 306.143L392.48 306.36C392.627 304.886 392.702 303.378 392.92 301.87H392.919ZM395.736 293.454C395.586 294.206 395.259 294.867 395.038 295.561C395.358 293.466 395.698 291.346 396.25 289.183C396.423 288.471 396.752 287.721 397.592 285.737C396.475 289.351 396.176 291.43 395.736 293.454ZM275.983 391.09C274.333 391.126 272.601 391.178 271.056 391.052C269.646 390.932 268.434 390.642 267.14 390.418C268.868 390.499 270.597 390.61 273.09 390.684C273.827 390.782 274.899 390.98 275.983 391.09ZM485.07 246.944C484.603 250.02 484.01 253.014 483.042 255.846C482.724 256.828 482.172 257.785 481.67 258.694C482.192 257.43 482.606 256.104 482.683 255.802C484.005 252.244 484.538 249.589 485.07 246.944ZM438.833 264.418C439.796 264.473 440.803 264.451 441.72 264.601C443.394 264.875 445.002 265.254 446.604 265.586L442.461 265.11C441.374 264.901 440.104 264.66 438.833 264.418ZM251.549 390.645C250.429 390.9 249.295 391.063 248.226 391.474L246.599 391.999C246.053 392.167 245.553 392.459 245.023 392.678C244.266 393.022 243.297 393.211 242.503 393.663C243.204 393.113 244.006 392.748 244.83 392.333L246.099 391.693C246.556 391.526 247.025 391.356 247.513 391.18C249.039 390.82 250.303 390.75 251.549 390.645ZM489.88 228.461C489.686 229.411 489.311 230.213 489.056 231.087C489.279 229.558 489.532 228.025 489.89 226.492C490.188 225.464 490.404 224.387 491.904 220.918C490.405 225.201 490.299 226.898 489.88 228.461ZM500.114 207.026C498.146 207.942 496.314 209.178 494.676 210.629C494.981 210.224 495.294 209.852 495.708 209.507C496.662 208.67 497.728 207.967 499.074 207.175C499.771 206.835 500.504 206.403 501.408 206.052C502.322 205.737 503.338 205.299 504.521 205.007C501.689 206.077 500.865 206.644 500.114 207.026ZM485.37 233.743C485.243 234.44 485.091 235.039 484.949 235.682C485.087 234.481 485.232 233.257 485.422 232.037C485.501 231.571 485.68 231.117 485.968 230.133L485.37 233.743ZM555.496 197.95C555.585 197.96 555.016 199.155 554.744 199.822C554.257 200.404 553.584 201.143 553.269 201.36C553.127 201.429 553.755 200.33 554.194 199.13C554.785 198.573 555.326 197.929 555.496 197.95ZM570.543 168.805C569.953 169.49 569.276 170.279 569.084 170.388C568.946 170.442 569.562 169.089 569.924 168.678C570.466 167.98 571.014 167.5 571.822 166.653C571.292 167.554 570.861 168.414 570.543 168.805ZM474.946 262.79C474.451 263.131 474.081 263.198 473.679 263.383C474.149 262.935 474.65 262.473 475.05 262.055C475.226 261.894 475.407 261.777 475.618 261.655C475.812 261.508 476.024 261.35 476.293 261.149C475.906 261.745 475.455 262.295 474.946 262.79ZM379.569 333.637C380.729 333.267 381.829 332.761 382.884 332.184C382.618 332.404 382.352 332.699 382.073 332.842C381.529 333.116 380.941 333.29 380.364 333.52C379.763 333.696 379.144 333.872 378.479 334.032C378.921 333.897 379.228 333.74 379.569 333.637ZM399.475 286.165L398.511 288.899C398.773 287.909 398.969 286.905 399.33 285.922C399.653 284.98 400.033 284.046 400.981 282.139C400.104 284.169 399.82 285.194 399.475 286.165ZM523.308 208.077C524.022 208.07 524.708 208.059 525.483 208.074C525.513 208.079 526.803 208.454 526.757 208.467C526.477 208.58 525.999 208.644 525.535 208.724C524.391 208.393 523.85 208.234 523.308 208.077ZM368.036 334.312C367.367 334.189 367.084 334.01 366.641 333.855C367.236 333.877 367.933 333.881 368.401 333.932C369.125 333.998 369.711 334.177 371.041 334.334C369.483 334.394 368.483 334.365 368.036 334.312ZM463.217 268.276C464.053 268.156 464.922 268.085 465.717 267.948C466.088 267.898 466.459 267.869 466.832 267.848L467.91 267.704L466.853 268.01L465.713 268.247C464.796 268.322 463.986 268.258 463.217 268.277V268.276ZM438.844 267.571C438.4 267.492 437.977 267.323 437.6 267.075C437.552 267.042 438.786 267.085 439.25 267.175C440.052 267.324 440.729 267.519 441.985 267.846C440.5 267.71 439.537 267.7 438.844 267.571ZM386.287 325.726C386.521 325.323 386.736 324.942 387.005 324.539C387.175 324.238 387.435 323.919 387.661 323.609C387.401 324.16 387.174 324.752 386.858 325.269L386.287 325.726ZM504.815 104.35C503.4 105.275 502.105 105.75 500.853 106.594C501.851 105.55 502.874 104.708 504.097 103.721C508.952 99.9954 514.377 96.8354 520.132 94.3714C518.786 94.7534 517.499 95.3014 516.188 95.8074L514.224 96.5764C513.573 96.8434 512.946 97.1664 512.306 97.4584C512.896 97.1404 513.488 96.7994 514.101 96.4974C514.722 96.2114 515.346 95.9274 515.963 95.6424C517.206 95.0944 518.384 94.4574 519.54 94.0094C520.884 93.4394 522.143 92.8594 523.388 92.2934L527.208 90.8204L523.158 91.6754C521.828 92.0444 520.488 92.4414 519.113 92.8924C514.669 94.4964 510.215 96.5144 506.123 99.0684C496.767 104.652 488.557 112.382 482.641 121.608C480.877 124.304 479.994 127.085 478.797 129.721C477.089 131.481 475.382 133.167 473.654 134.631L473.773 134.511C472.889 135.784 471.947 136.903 471 137.98C470.02 138.974 469.051 139.963 468.003 140.671C467.503 141.093 466.947 141.339 466.433 141.694C465.876 141.923 465.368 142.274 464.793 142.434C463.704 142.909 462.536 143.107 461.198 143.289C458.541 143.632 455.333 143.446 451.722 143.469C449.901 143.489 447.962 143.565 445.893 143.859C443.817 144.171 441.596 144.758 439.453 145.763C438.962 146.013 438.451 146.235 437.983 146.522L436.605 147.435C436.155 147.753 435.685 148.049 435.259 148.397L434.047 149.527C433.657 149.916 433.23 150.287 432.884 150.7L431.887 151.972C431.186 152.822 430.677 153.709 430.169 154.605C428.169 158.196 427.199 161.755 426.405 165.036C425.63 168.328 425.068 171.423 424.381 174.269C423.709 177.115 422.891 179.687 421.784 181.738C419.976 185.117 417.29 187.234 413.687 188.612C410.082 190.009 405.667 190.702 400.81 191.395C396.06 192.082 390.941 192.595 385.538 193.65C380.166 194.716 374.333 196.336 368.821 199.731C363.289 203.123 359.096 207.949 355.918 212.675C352.717 217.443 350.34 222.233 348.046 226.695C346.131 230.437 344.285 233.98 342.273 237.119C340.266 240.259 338.061 242.894 335.596 244.911C333.134 246.92 330.208 248.486 326.803 249.758C323.422 251.038 319.567 251.943 315.56 252.861C311.529 253.784 307.303 254.598 302.853 255.818C298.426 257.04 293.769 258.622 289.232 261.213C286.956 262.467 284.775 264.105 282.732 265.886C281.754 266.845 280.788 267.819 279.84 268.804C279.018 269.864 278.076 270.928 277.39 272.018C274.42 276.38 272.565 280.768 270.901 284.685C269.241 288.622 267.73 292.213 265.971 294.895C264.233 297.675 262.366 299.202 260.117 300.232C257.83 301.198 254.674 301.498 250.951 301.366C247.191 301.221 242.964 300.682 238.245 300.506C233.585 300.318 228.02 300.638 222.531 302.871C219.817 303.979 217.297 305.559 215.138 307.337C212.958 309.119 211.184 311.102 209.61 313.072C206.474 317.042 204.248 321.008 202.107 324.61C199.984 328.257 198.036 331.27 195.644 334.316C185.459 347.297 170.58 357.196 155.831 367.893L111.687 399.766C101.259 407.342 89.955 415.767 81.232 423.106C67.698 434.493 69.512 439.148 83.247 432.764C87.052 430.996 91.239 429.3 95.915 426.217C110.407 416.667 125.295 405.515 140.071 395.986C150.139 389.492 160.91 381.871 171.384 374.623C181.247 367.774 191.488 360.745 200.683 351.701C205.247 347.187 209.564 342.128 213.148 336.546C216.643 331.086 219.365 325.992 222.444 322.34C223.7 320.843 224.969 319.63 226.258 318.732C227.547 317.805 228.845 317.264 230.428 316.84C231.178 316.591 232.095 316.495 232.975 316.34C233.945 316.274 234.862 316.142 235.942 316.156C238 316.088 240.329 316.236 242.766 316.378C247.654 316.66 253.256 317.242 259.661 316.131C262.86 315.558 266.205 314.329 269.224 312.533C272.25 310.707 274.743 308.219 276.719 305.678C279.14 302.518 280.839 299.262 282.279 296.202C283.713 293.137 284.89 290.21 286.039 287.556C287.815 283.503 289.573 280.042 291.979 277.702C294.343 275.21 297.511 273.303 301.301 271.816C305.084 270.322 309.393 269.249 313.927 268.2C318.469 267.14 323.258 266.142 328.194 264.575C333.103 263.014 338.232 260.855 342.853 257.432C347.498 254.03 351.105 249.635 353.913 245.262C359.517 236.466 362.788 227.506 367.476 220.444C369.262 217.81 371.151 215.347 373.376 213.518C373.886 212.981 374.52 212.661 375.078 212.211L375.938 211.574L376.853 211.025C378.1 210.319 379.419 209.671 380.86 209.145C386.597 206.962 393.48 206.125 400.612 204.945C404.147 204.355 407.797 203.692 411.538 202.632C415.264 201.568 419.132 200.062 422.714 197.644C424.514 196.405 426.168 194.965 427.644 193.352C429.09 191.72 430.33 189.916 431.337 187.982C433.337 184.166 434.301 180.307 435.037 176.7C435.763 173.083 436.239 169.632 436.923 166.448C437.593 163.268 438.496 160.368 439.95 158.254C440.326 157.746 440.659 157.181 441.126 156.791L441.761 156.121L442.514 155.581C443.472 154.781 444.605 154.306 445.917 153.924C448.534 153.159 451.801 153.107 455.367 153.047C457.615 152.999 460.008 152.937 462.527 152.554C465.037 152.198 467.715 151.378 470.061 150.114C472.429 148.864 474.51 147.217 476.287 145.423C478.059 143.619 479.541 141.677 480.884 139.722C483.567 135.802 485.654 131.799 487.87 128.081C488.947 126.197 490.189 124.553 491.339 122.775L493.296 120.295L494.276 119.054L495.346 117.889C506.576 105.232 522.934 97.1924 539.789 95.4704C541.941 95.3174 544.051 95.0124 546.173 94.9504C548.297 94.7524 550.413 94.8154 552.56 94.8634C550.99 94.3724 549.46 93.7634 547.838 93.3534C546.216 92.9904 544.51 92.4764 542.608 92.2654C541.497 92.1344 538.42 92.3064 536.264 92.6114C538.843 92.1564 541.64 92.1244 544.022 91.8654C545.704 91.7714 547.312 91.6824 548.902 91.5924L553.694 91.6064C547.04 90.1124 540.078 89.6414 532.986 90.2664C532.72 90.2964 531.292 90.9894 530.067 91.3504C528.356 91.7894 526.392 92.4994 524.544 93.0884C521.753 94.5004 519.116 96.0014 516.026 97.7794L514.83 98.4264C514.432 98.6664 514.027 98.9124 513.611 99.1624C512.777 99.6574 511.898 100.158 510.961 100.668C510.022 101.178 509.089 101.808 508.054 102.394C507.022 102.996 505.924 103.61 504.814 104.349L504.815 104.35ZM354.475 229.232C355.625 226.69 357.091 223.912 358.574 221.288C358.864 220.798 359.3 220.417 359.666 219.989C358.364 222.392 357.253 224.855 356.1 227.331L354.086 231.589C353.513 232.901 353.024 234.22 352.326 235.566C349.811 240.461 346.906 245.293 342.988 249.331C342.863 249.289 342.604 249.237 342.635 249.202C346.947 244.723 350.083 239.325 352.841 233.799C353.239 233.004 353.767 232.197 354.228 231.392C354.29 230.686 354.033 230.206 354.475 229.232ZM431.513 167.992C431.869 166.396 432.302 164.818 432.808 163.262C432.529 164.938 432.511 166.638 432.168 168.285C431.181 173.075 430.4 177.978 428.608 182.632C427.647 184.922 426.472 187.164 424.855 189.081C423.255 191.006 421.302 192.629 419.161 193.906C414.853 196.476 409.959 197.718 405.126 198.606C400.271 199.491 395.379 200.018 390.544 200.829C383.539 202.009 376.37 203.808 370.752 208.239C370.184 208.608 369.67 209.042 369.141 209.462L367.537 210.716L368.957 209.231C369.43 208.73 369.91 208.23 370.493 207.845L372.663 206.268C373.436 205.818 374.192 205.334 375 204.947C376.587 204.116 378.251 203.445 379.943 202.871C383.327 201.709 386.829 200.979 390.311 200.333C392.253 199.977 394.273 199.285 395.567 198.793C396.256 198.532 395.457 198.324 395.33 198.093C397.582 198.025 400.125 197.876 401.96 197.895C403.582 197.913 404.423 198.155 405.62 198.271C407.23 197.675 408.816 197.014 410.374 196.29C411.173 195.845 411.962 195.406 412.716 194.92C413.099 194.865 413.482 194.804 413.857 194.723C412.667 195.317 411.421 195.827 410.155 196.312C412.835 196.442 415.998 195.474 418.827 193.652C421.686 191.849 424.011 189.175 425.717 186.532L424.766 186.289L425.463 185.11C425.541 185.61 425.61 186.126 425.669 186.658C427.456 183.953 428.569 180.834 429.407 177.666C430.238 174.49 430.812 171.231 431.513 167.992ZM451.303 149.416C448.571 149.467 445.796 149.656 443.223 150.61C440.635 151.505 438.375 153.253 436.686 155.41C438.482 152.894 441.09 150.894 444.089 149.907C447.094 148.905 450.286 148.727 453.399 148.619C454.351 148.589 455.371 148.609 456.343 148.619C459.723 148.627 463.158 148.554 466.33 147.365C462.938 148.991 459.03 149.324 455.788 149.583C453.777 149.495 452.569 149.403 451.304 149.416H451.303ZM308.069 262.896C311.924 261.92 315.769 260.949 319.636 259.971C322.983 259.097 326.329 258.118 329.565 256.872C331.485 256.062 333.42 255.258 335.211 254.187C333.664 255.352 332.2 256.301 330.198 257.261C327.085 258.567 323.524 259.65 318.758 260.839L308.069 262.896ZM477.807 136.723C479.611 133.557 481.037 130.313 482.831 126.888C483.286 126.044 484.516 124.605 485.497 123.505C483.97 126.335 482.734 129.26 481.132 132.632C480.067 134.03 478.958 135.395 477.807 136.723ZM269.069 298.135C270.299 296.178 271.269 293.728 272.279 291.75C274.078 288.181 275.8 284.648 277.829 281.01C277.309 282.348 276.796 283.682 276.474 284.616C273.917 289.909 271.867 294.515 269.069 298.135ZM351.257 231.247C352.527 228.259 353.587 225.278 355.194 222.111C355.943 220.581 357.511 218.764 358.779 217.123C358.034 218.433 357.351 219.761 356.696 221.013L355 224.52C353.467 227.273 352.363 229.26 351.257 231.247ZM349.193 228.952C347.18 233.027 345.188 236.919 342.806 240.303C342.221 241.195 341.366 241.861 340.661 242.639C342.498 240.292 344.064 237.529 345.413 235.063C346.717 233.054 347.978 231.017 349.193 228.952ZM272.769 296.508C273.25 295.465 273.594 294.262 274.075 293.318C275.941 289.541 277.578 285.598 279.55 281.75C278.592 283.938 277.72 286.148 276.541 289.185C275.564 291.285 274.285 293.995 272.769 296.508ZM372.912 202.602C375.143 201.251 377.527 200.05 379.892 199.334C382.539 198.53 385.132 198.214 387.702 197.887C385.416 198.441 383.119 199.073 380.72 199.925C377.85 200.612 375.345 201.459 372.912 202.602ZM460.052 144.152C461.446 143.919 462.738 143.551 463.823 143.195C465.717 142.621 467.519 141.765 469.221 140.382C468.026 141.517 466.771 142.502 465.056 143.331C463.615 143.847 461.959 144.078 460.053 144.153L460.052 144.152ZM406.551 191.512C407.259 191.268 408.054 190.836 408.561 190.739C412.211 189.957 415.381 188.859 417.886 187.105C416.718 188.11 415.46 189.07 412.952 190.231C411.317 190.729 409.008 191.201 406.551 191.512ZM337.458 249.067C336.521 249.674 335.538 250.064 334.578 250.517C336.016 249.421 337.395 248.363 338.695 247.08C339.055 246.746 339.508 246.476 340.088 245.928L341.157 245.002C341.671 244.584 342.149 244.124 342.587 243.626C342.027 244.459 341.447 245.062 340.965 245.636C340.465 246.188 340.081 246.742 339.645 247.115C338.795 247.893 338.16 248.533 337.458 249.067ZM351.238 224.415C351.979 222.794 352.753 221.094 353.634 219.486C354.07 218.695 354.592 217.918 355.09 217.156C355.593 216.379 356.122 215.619 356.677 214.878C356.157 215.713 355.705 216.551 355.255 217.413C354.808 218.273 354.299 219.165 353.865 220.091C352.945 221.571 352.063 223.005 351.239 224.415H351.238ZM493.201 111.78C493.949 110.918 494.716 110.098 495.483 109.25C496.247 108.4 497.046 107.559 497.985 106.8C498.925 106.021 500.313 105.206 501.553 104.508C500.401 105.516 499.343 106.638 498.066 107.869C496.214 109.227 494.726 110.522 493.201 111.78ZM184.805 352.256C182.765 353.775 180.848 354.953 178.853 356.228C179.849 355.377 180.898 354.425 181.828 353.7C183.864 352.149 185.843 350.715 189.238 347.916C186.807 350.414 185.616 351.653 184.805 352.256ZM393.865 196.564C395.084 196.272 396.339 195.88 397.489 195.732C398.755 195.569 399.923 195.626 401.126 195.578C399.97 195.865 398.816 196.152 397.291 196.529L393.864 196.564H393.865ZM331.52 249.718C332.18 249.362 332.855 249.035 333.54 248.715L335.414 247.575C334.736 248.11 334.203 248.771 333.367 249.231C332.627 249.636 331.874 250.045 331.115 250.46L328.651 251.497L328.371 251.347L329.966 250.529C330.505 250.269 331.032 250.007 331.52 249.718ZM337.706 247.405C337.276 247.772 336.778 247.978 336.254 248.165C336.919 247.754 337.418 247.136 338.009 246.639L338.872 245.86C339.148 245.584 339.406 245.273 339.678 244.985C340.018 244.571 340.564 244.334 341.688 243.242C340.864 244.343 340.098 245.053 339.503 245.767C338.883 246.449 338.271 246.895 337.706 247.405ZM208.73 329.502C208.039 330.808 207.353 332.203 206.58 333.371C205.853 334.423 205.053 335.226 204.288 336.128C205.127 334.812 206.008 333.524 207.131 331.585C207.539 331.051 208.134 330.278 208.73 329.502ZM418.084 190.487C416.011 191.901 413.648 193.036 411.061 193.86C410.171 194.144 409.157 194.286 408.183 194.454C409.092 194.175 409.994 193.871 410.887 193.544C414.191 192.582 416.219 191.624 418.084 190.487ZM361.457 208.449C362.051 207.674 362.549 206.792 363.261 206.129C364.598 204.946 365.876 203.769 367.418 202.829C366.325 203.633 365.391 204.572 364.154 205.827C363.245 206.547 362.369 207.505 361.457 208.449ZM195.292 347.031C193.885 348.581 192.455 350.091 190.918 351.556C190.353 352.081 189.59 352.554 188.92 353.048C190.042 351.891 191.17 350.747 192.423 349.358C193.545 348.503 194.406 347.758 195.292 347.031ZM428.154 179.038C427.932 179.85 427.483 180.468 427.125 181.153C427.555 179.924 427.829 178.629 428.188 177.351C428.382 176.456 428.723 175.605 429.51 172.481C428.874 176.298 428.554 177.706 428.154 179.038ZM429.499 158.952L428.591 161.428L427.833 163.838C427.881 163.451 427.88 163.071 427.985 162.674L428.368 161.24C428.54 160.732 428.72 160.194 428.92 159.599C429.108 159.007 429.349 158.351 429.697 157.597C430.032 156.848 430.347 156.013 430.927 155.064C430.317 156.279 430.159 157.084 429.94 157.672C429.74 158.249 429.615 158.614 429.499 158.952ZM423.204 182.227C423.001 182.701 422.702 183.023 422.434 183.385C422.868 182.693 423.138 181.825 423.513 181.043L424.216 179.771C423.838 180.941 423.507 181.586 423.204 182.227ZM477.429 134.917C477.514 134.939 476.944 136.003 476.641 136.571C476.148 137.052 475.513 137.701 475.188 137.853C475.065 137.918 475.659 136.926 476.132 135.87C476.738 135.438 477.261 134.87 477.429 134.917ZM495.401 111.392C494.786 111.916 493.998 112.437 493.808 112.497C493.663 112.506 494.468 111.453 494.84 111.134C495.432 110.61 496.003 110.288 496.864 109.683C496.258 110.399 495.748 111.1 495.401 111.392ZM399.903 192.828C399.163 192.881 398.745 192.78 398.176 192.74C398.986 192.583 399.822 192.368 400.556 192.278C401.15 192.198 401.63 192.274 402.44 192.278C401.325 192.534 400.404 192.795 399.903 192.828ZM298.101 262.518L299.948 261.815L301.81 261.233C301.48 261.412 301.143 261.661 300.824 261.755C299.577 262.092 298.351 262.565 296.957 263.014C297.408 262.816 297.742 262.655 298.101 262.518ZM343.256 244.353C342.783 244.984 342.204 245.464 341.652 245.982C342.186 245.382 342.693 244.764 343.179 244.102C343.641 243.463 344.247 242.964 345.229 241.608C344.304 243.083 343.747 243.695 343.256 244.353ZM447.251 146.549C447.915 146.289 448.558 146.079 449.291 145.871C449.324 145.851 450.628 145.884 450.591 145.912C450.351 146.095 449.928 146.262 449.517 146.477C448.368 146.483 447.814 146.502 447.251 146.549ZM287.101 268.251C286.51 268.651 286.133 268.693 285.722 268.973C286.146 268.487 286.724 268.027 287.132 267.717C287.926 267.175 288.753 266.682 289.608 266.241C288.256 267.246 287.517 268.003 287.101 268.251ZM384.621 196.611C385.52 196.354 386.428 196.13 387.343 195.94C388.168 195.798 389.003 195.722 389.823 195.639L387.355 196.24C386.322 196.375 385.478 196.47 384.62 196.611H384.621ZM364.093 210.175C363.794 210.487 363.431 210.73 363.029 210.887C362.976 210.909 363.659 209.957 363.979 209.627C364.528 209.067 365.005 208.607 366.044 207.862C365.01 208.892 364.579 209.705 364.093 210.175ZM308.776 256.542C309.315 256.374 309.825 256.192 310.402 256.043C310.795 255.946 311.275 255.898 311.717 255.828L309.661 256.536L308.776 256.542ZM57.001 325.621C58.115 324.227 59.147 323.247 60.188 322.053C59.452 323.362 58.792 324.59 57.895 325.967C56.091 328.646 54.112 331.313 51.848 333.713C49.635 336.171 47.171 338.421 44.541 340.496C45.811 339.706 46.966 338.758 48.193 337.886C49.343 336.932 50.527 335.998 51.636 334.983C50.644 336.015 49.519 336.977 48.466 337.975L45.234 340.672C43.981 341.614 42.879 342.622 41.651 343.442L39.853 344.728C39.247 345.149 38.593 345.511 37.949 345.907C40.766 344.762 43.341 343.37 45.939 341.636C50.134 338.731 53.978 335.185 57.327 331.245C58.244 330.117 59.187 328.945 60.04 327.813C60.858 326.683 61.704 325.554 62.49 324.424L67.197 317.677C70.287 313.219 73.356 308.887 76.697 304.987C78.639 302.666 80.217 300.345 82.192 298.233C83.306 297.731 84.365 297.17 85.492 296.809L87.132 296.214C87.686 296.05 88.247 295.923 88.79 295.777L88.63 295.832C91.329 294.378 94.138 293.359 97.125 292.855C100.143 292.332 103.442 292.225 106.907 292.215C110.377 292.2 114.026 292.302 117.901 292.098C121.761 291.883 125.931 291.363 130.117 289.788C131.092 289.468 132.041 288.992 132.987 288.515C133.952 288.08 134.84 287.474 135.737 286.885C136.661 286.331 137.457 285.608 138.268 284.905L139.477 283.838C139.86 283.468 140.185 283.062 140.54 282.671C143.39 279.54 145.353 275.984 146.811 272.602C149.761 265.801 151.371 259.297 153.885 254.102C154.911 251.952 156.111 250.147 157.395 248.679C158.758 247.337 160.113 246.208 161.712 245.529C164.847 244.119 168.958 243.882 173.902 244.112C178.712 244.301 184.045 245.047 190.031 245.141C193.041 245.16 196.247 245.012 199.631 244.316C203.001 243.593 206.58 242.31 209.713 240.157C212.808 238.064 215.442 235.361 217.455 232.213C219.381 229.198 220.667 226.091 221.633 223.121C223.54 217.159 224.313 211.639 225.353 206.635C226.193 202.465 227.173 198.621 228.616 195.816C230.054 193.002 231.774 191.424 234.116 190.424C235.289 189.961 236.714 189.677 238.367 189.532C240.004 189.376 241.955 189.459 244.004 189.569C248.146 189.79 252.897 190.459 258.422 190.1C259.788 190.031 261.231 189.822 262.673 189.578C264.128 189.254 265.629 188.934 267.05 188.397C269.92 187.394 272.633 185.917 274.992 184.173C279.744 180.651 283.053 176.336 285.789 172.261C288.514 168.154 290.722 164.143 292.947 160.453C295.154 156.761 297.375 153.404 299.797 150.766C301.007 149.448 302.256 148.321 303.553 147.406C304.203 146.946 304.858 146.546 305.549 146.193C306.283 145.903 306.941 145.52 307.707 145.249C310.734 144.135 314.444 143.656 318.527 143.509C322.617 143.352 327.053 143.515 331.833 143.427C336.599 143.317 341.835 143.01 347.334 141.257C348.705 140.782 350.074 140.367 351.417 139.642L353.427 138.635C354.093 138.293 354.703 137.815 355.339 137.403C357.919 135.79 360.171 133.593 361.994 131.344C365.656 126.774 367.779 121.924 369.533 117.461C371.269 112.978 372.616 108.725 374.152 105.001C375.664 101.273 377.418 98.1754 379.365 96.3694C380.408 95.3924 381.48 94.6824 382.782 94.2314C383.998 93.7814 385.476 93.5854 387.178 93.5364C388.912 93.5354 390.921 93.7714 393.045 94.0994L400.048 95.3694C402.607 95.7824 405.258 96.2364 408.312 96.3124C411.339 96.3574 414.666 96.1864 418.078 95.0544C418.923 94.8404 419.744 94.4114 420.568 94.0774L421.795 93.5254C422.195 93.3224 422.568 93.0724 422.952 92.8414C423.712 92.3664 424.477 91.8934 425.206 91.3784C425.89 90.8093 426.563 90.2282 427.226 89.6354C429.746 87.2124 431.746 84.3954 433.055 81.7314C434.449 79.0474 435.444 76.4354 436.274 74.0014C437.134 71.5234 437.821 69.2474 438.548 67.0614C439.968 62.7784 441.486 59.0354 443.438 56.7544C445.254 54.4314 447.975 52.8054 451.561 51.6424C379.365 96.3694 459.337 49.9324 463.782 49.6414C470.272 49.1754 478.053 49.1614 486.18 46.6814C488.197 46.0354 490.213 45.2754 492.15 44.2684C492.637 44.0424 493.108 43.7504 493.582 43.4884C494.056 43.2154 494.512 42.9684 495.022 42.6104L496.49 41.6004L497.83 40.4984C501.314 37.5104 503.688 33.8854 505.247 30.1264C507.624 24.2324 507.006 18.5144 505.264 15.2164C503.546 11.8464 501.467 10.8704 500.601 11.0134C499.631 11.1834 499.561 12.5074 499.644 14.5484C499.691 16.6084 499.639 19.5074 498.217 22.7654C496.641 26.3614 493.614 29.4474 489.768 32.0334L488.613 32.7034L487.303 33.3394L485.937 33.9074L484.523 34.4074C482.605 35.0274 480.56 35.4674 478.426 35.7834C474.152 36.4184 469.551 36.5434 464.732 36.7444C459.869 36.9414 454.732 37.3314 449.564 38.5964C444.429 39.8464 439.026 42.1234 434.671 46.1824C431.73 48.9524 429.503 52.3854 427.896 55.7694C426.266 59.1674 425.114 62.5604 424.019 65.7494C422.934 68.9364 421.893 71.9324 420.639 74.4144C419.383 76.9064 417.969 78.7494 416.349 79.8344C414.777 80.9024 413.104 81.4344 410.906 81.5604C408.716 81.6854 406.069 81.3304 403.176 80.7694C400.271 80.2154 397.119 79.4644 393.604 78.9144C390.102 78.3844 386.131 78.0174 381.784 78.7424C381.244 78.8394 380.708 78.9024 380.164 79.0394L378.529 79.5114C377.988 79.6804 377.436 79.8314 376.906 80.0294L375.343 80.6934C373.286 81.6554 371.313 82.8904 369.594 84.3484C367.948 85.7673 366.458 87.358 365.149 89.0934C363.904 90.7604 362.879 92.4544 361.968 94.1324C360.184 97.4874 358.902 100.744 357.74 103.833C356.584 106.912 355.558 109.863 354.462 112.545C352.678 117.016 350.652 120.732 348.229 123.049C347.017 124.188 345.569 125.043 344.002 125.846C342.279 126.48 340.462 127.114 338.262 127.401C333.961 128.112 328.916 128.091 323.464 128.171C318.022 128.288 312.076 128.436 305.778 130.118C303.838 130.744 301.89 131.304 299.975 132.268C298.03 133.083 296.198 134.225 294.481 135.423C291.095 137.888 288.286 140.815 286.033 143.79C282.563 148.345 280 152.973 277.517 157.267C275.051 161.557 272.675 165.578 270.01 168.723C267.34 171.897 264.513 173.986 261.21 174.905C257.99 175.909 253.571 175.713 248.653 175.372C246.165 175.2 243.499 175.01 240.631 175.032C237.768 175.065 234.659 175.289 231.434 176.211C228.208 177.145 225.036 178.779 222.405 180.996C219.728 183.215 217.715 186.024 216.25 188.799C213.346 194.425 212.313 199.895 211.333 204.925C210.395 209.961 209.654 214.727 208.361 218.869C207.392 222.024 206.063 224.709 204.327 226.665C202.556 228.596 200.387 229.916 197.63 230.642C194.882 231.391 191.558 231.518 188.039 231.423C184.511 231.329 180.745 230.992 176.797 230.849C172.903 230.714 168.745 230.729 164.381 231.553C160.051 232.37 155.414 234.266 151.869 237.441C148.248 240.527 145.805 244.454 144.092 248.215C142.364 252.005 141.225 255.735 140.135 259.292C138.012 266.339 135.929 273.007 131.683 277.082C129.609 279.146 126.952 280.523 123.877 281.374C120.803 282.234 117.335 282.525 113.72 282.661C109.164 282.841 104.362 282.763 99.343 283.341C94.336 283.815 89.058 285.453 84.563 288.005C80.02 290.559 76.133 293.943 72.753 297.572C69.366 301.212 66.441 305.112 63.679 309.024L55.665 320.692L53.651 323.517L51.611 326.151L49.413 328.663L47.069 331.045C43.853 334.125 40.285 336.849 36.457 338.978C32.639 341.103 28.509 342.596 24.405 342.941C20.27 343.293 16.21 342.821 12.564 340.697C14.716 343.147 17.459 344.973 21.384 345.977C22.528 346.375 25.814 346.114 28.082 345.702C26.718 345.949 25.308 346.233 23.897 346.234C22.492 346.385 21.123 346.221 19.844 346.174C16.284 345.848 13.049 344.824 10 343.044C12.83 345.436 16.336 347.196 20.153 347.94C23.964 348.71 27.993 348.522 31.801 347.611C31.941 347.569 32.413 347.386 32.963 347.05C33.515 346.72 34.185 346.327 34.812 346.025C35.697 345.637 36.6 345.117 37.534 344.608L38.944 343.843L40.279 342.985C42.909 340.909 45.155 338.565 47.809 335.882C50.448 333.166 53.439 330.015 57.001 325.621ZM218.475 205.966C217.993 209.077 217.409 212.172 216.725 215.244C216.59 215.831 216.275 216.354 216.045 216.904C216.6 214.064 216.992 211.234 217.419 208.379C217.661 206.767 217.945 205.102 218.252 203.471C218.461 201.971 218.662 200.499 219.048 198.938C219.793 196.117 220.736 193.296 222.225 190.718C222.957 189.423 223.852 188.22 224.849 187.101C225.892 186.03 227.009 185.001 228.297 184.219C228.414 184.287 228.666 184.392 228.625 184.419C225.823 186.169 223.634 188.756 222.134 191.648C220.606 194.542 219.679 197.7 218.927 200.876C218.723 201.792 218.401 202.758 218.161 203.711C218.271 204.443 218.65 204.853 218.475 205.966ZM142.363 268.661C142.059 269.478 141.678 270.261 141.292 271.036C140.916 271.816 140.533 272.592 140.075 273.332C140.44 272.512 140.673 271.639 140.928 270.783C141.198 269.933 141.467 269.09 141.772 268.253C143.668 263.437 145.022 258.399 146.976 253.539C147.898 251.09 149.123 248.75 150.489 246.499L151.659 244.899C151.857 244.635 152.044 244.363 152.25 244.105L152.934 243.384C153.393 242.906 153.839 242.415 154.31 241.95L155.874 240.72C157.961 239.08 160.439 237.974 162.988 237.303C165.543 236.618 168.178 236.336 170.796 236.278C176.042 236.151 181.23 236.792 186.409 237.058C190.185 237.242 193.995 237.269 197.68 236.524C201.357 235.802 204.853 234.161 207.57 231.594C208.592 230.612 209.642 229.647 210.514 228.5C209.777 229.745 208.927 230.932 207.867 231.964C205.111 234.59 201.529 236.26 197.815 236.989C194.089 237.738 190.28 237.721 186.538 237.594C184.45 237.518 182.202 237.742 180.76 237.94C179.99 238.044 180.769 238.421 180.849 238.674L173.966 237.514C172.292 237.198 171.458 236.832 170.223 236.527C168.43 236.895 166.673 237.367 165.009 237.99C164.134 238.362 163.296 238.796 162.502 239.262C162.112 239.325 161.714 239.377 161.32 239.454C162.567 238.874 163.87 238.344 165.238 237.981C162.472 237.65 158.984 238.643 156.238 240.931C153.4 243.118 151.39 246.291 149.82 249.259L150.824 249.412C150.559 249.827 150.347 250.28 150.134 250.731C150.039 250.202 149.918 249.649 149.872 249.126C146.592 255.236 145.002 262.141 142.362 268.661H142.363ZM118.089 286.132C120.987 285.958 123.887 285.582 126.673 284.737C129.449 283.88 132.084 282.494 134.275 280.567C131.89 282.837 128.885 284.426 125.715 285.397C122.535 286.378 119.21 286.794 115.902 287.027C114.893 287.101 113.808 287.111 112.774 287.104C109.152 287.107 105.552 287 101.956 287.172C105.908 286.648 109.919 286.442 113.351 286.132C115.469 286.177 116.754 286.224 118.089 286.132ZM267.357 179.386C265.55 180.411 263.606 181.174 261.585 181.652C259.535 182.096 257.446 182.337 255.349 182.372C251.691 182.469 248.011 182.096 244.343 181.95C242.137 181.879 239.916 181.805 237.723 182.04C239.721 181.638 241.56 181.348 243.896 181.34C245.676 181.363 247.541 181.47 249.592 181.587C251.645 181.693 253.899 181.837 256.442 181.708C258.171 181.722 259.897 181.585 261.602 181.298C263.601 180.935 265.538 180.291 267.357 179.386ZM85.969 292.086C82.809 294.259 80.146 296.851 77.485 299.796C76.835 300.536 75.237 301.661 74.14 302.71C76.08 300.005 78.175 297.392 81.053 294.674C82.004 294.034 82.896 293.599 83.69 293.177C84.477 292.745 85.203 292.377 85.969 292.086ZM307.253 140.826C306.691 141.059 306.067 141.21 305.539 141.527C304.999 141.815 304.459 142.104 303.922 142.389C302.852 142.945 301.915 143.641 301.014 144.209C297.845 146.333 295.094 148.983 292.544 152.131C293.198 151.06 293.887 150.011 294.611 148.986C296.549 146.844 298.528 145.048 300.628 143.699C301.691 143.046 302.723 142.415 303.854 141.993L305.518 141.329C306.061 141.093 306.681 141.001 307.253 140.826ZM221.077 203.026C220.587 206.36 220.389 209.66 219.749 213.338C219.44 215.112 218.483 217.438 217.682 219.508C218.412 216.375 218.884 213.288 219.252 210.864C219.983 207.595 220.488 205.284 221.077 203.025V203.026ZM223.66 204.754C224.556 200.217 225.705 195.989 227.7 192.96C228.219 192.208 228.928 191.596 229.61 191.082C228.778 191.992 228.06 193.057 227.446 194.235C226.839 195.419 226.356 196.732 225.94 198.007C224.842 200.607 224.245 202.671 223.66 204.754ZM303.18 139.969C302.657 140.258 302.132 140.579 301.657 140.959L300.245 141.963C296.629 144.32 293.612 147.557 290.965 151.117C292.329 149.079 293.749 147.068 296.085 144.629C297.849 143.009 300.343 141.119 303.18 139.969ZM205.318 237.527C202.814 239.028 199.986 240.082 197.295 240.503C194.275 240.973 191.457 240.752 188.698 240.541C191.21 240.481 193.775 240.314 196.505 239.814C199.706 239.522 202.602 238.813 205.318 237.527ZM108.448 291.467C106.732 291.583 105.038 291.799 103.44 291.874C100.718 291.984 98.15 292.127 95.744 292.626C97.514 292.059 99.474 291.748 101.916 291.407C104.094 291.367 106.272 291.387 108.449 291.467H108.448ZM168.35 243.107C167.64 243.26 166.852 243.607 166.38 243.661C164.648 243.885 163.097 244.275 161.69 244.873C161.335 245.013 160.99 245.176 160.658 245.363C160.305 245.514 160.005 245.753 159.69 245.97L158.726 246.611C158.401 246.829 158.141 247.148 157.836 247.408C158.11 247.118 158.337 246.758 158.649 246.498C158.959 246.235 159.279 245.963 159.62 245.669C160.272 245.031 161.15 244.526 162.288 243.939C163.809 243.467 165.945 243.094 168.35 243.108V243.107ZM233.593 185.981C234.087 185.777 234.655 185.78 235.175 185.725C235.691 185.665 236.242 185.705 236.788 185.705C235.866 185.845 235.053 186.151 234.215 186.39C233.441 186.74 232.629 187 231.908 187.434C231.69 187.545 231.467 187.642 231.238 187.727L230.398 188.148C229.734 188.463 228.914 188.963 227.806 189.871C229 188.501 230.118 187.739 231.038 187.137C231.523 186.875 231.952 186.644 232.351 186.427C232.78 186.26 233.189 186.122 233.593 185.981ZM222.905 209.813C222.627 211.654 222.399 213.573 221.981 215.48C221.574 217.353 220.979 219.209 220.326 221.113C220.836 219.091 221.233 217.101 221.594 214.942C222.04 213.197 222.474 211.504 222.905 209.812V209.813ZM66.555 314.921C65.362 316.923 64.295 318.915 62.939 320.984C62.258 322.029 61.064 323.199 60.103 324.309C60.883 322.934 61.666 321.559 62.578 319.953C64.044 318.096 65.298 316.509 66.555 314.921ZM395.001 89.4744C397.606 90.0894 399.907 90.8644 402.502 91.4944C401.021 91.3214 399.491 91.1364 398.225 90.8704L394.065 89.9274C392.56 89.6024 390.841 89.2374 388.688 88.9974C390.408 89.0084 391.735 89.0774 392.758 89.1744C393.769 89.2464 394.484 89.3494 395.001 89.4744ZM182.012 240.489C180.689 240.504 179.321 240.617 178.114 240.519C176.79 240.419 175.608 240.119 174.379 239.947C175.597 239.867 176.836 239.824 178.488 239.781L182.012 240.489ZM239.297 187.635C237.733 187.705 236.266 187.775 234.945 188.062C235.328 187.929 235.701 187.78 236.084 187.63C236.493 187.515 236.927 187.421 237.384 187.342C239.054 187.125 240.905 187.102 242.896 187.218L243.11 187.472C241.776 187.48 240.504 187.595 239.297 187.635ZM232.866 187.411C233.372 187.251 233.889 187.273 234.381 187.206C233.019 187.718 231.775 188.291 230.631 189.116C230.276 189.414 229.762 189.538 228.657 190.356C230.324 188.641 231.621 187.989 232.866 187.411ZM366.936 101.056C367.484 99.5844 368.065 98.0294 368.814 96.7324C369.481 95.5414 370.312 94.6494 371.137 93.7004C370.186 95.0624 369.369 96.5114 368.355 98.6594C367.98 99.2604 367.435 100.147 366.936 101.056ZM157.281 244.042C159.17 242.282 161.511 241.089 164.138 240.382C165.038 240.13 166.073 240.075 167.067 240.005C165.773 240.249 164.551 240.607 164.294 240.705C162.624 241.091 161.304 241.578 160.194 242.149C159.615 242.398 159.135 242.744 158.629 243.019C158.169 243.366 157.725 243.703 157.281 244.042ZM217.081 229.287C216.621 230.281 216.212 231.357 215.541 232.257C214.405 233.927 212.917 235.39 211.351 236.72C212.471 235.639 213.509 234.473 214.669 232.822C215.554 231.701 216.36 230.52 217.081 229.287ZM383.505 85.6694C384.601 85.3794 385.723 85.3704 386.843 85.2294C387.959 85.2364 389.097 85.1564 390.222 85.2814C391.045 85.3464 391.966 85.5814 392.822 85.8024C391.029 85.6544 389.227 85.6284 387.43 85.7244C386.688 85.6064 386.014 85.6544 385.369 85.6174L384.422 85.5934C384.114 85.6194 383.809 85.6454 383.505 85.6694ZM147.235 257.339C147.555 256.502 147.987 255.812 148.395 255.079L147.063 259.151C146.755 260.081 146.36 260.996 145.129 264.224C146.324 260.253 146.708 258.739 147.235 257.339ZM142.269 278.421C142.539 278.021 142.831 277.631 143.083 277.235L143.785 276.04C144.242 275.245 144.754 274.453 145.12 273.65C144.995 274.047 144.948 274.445 144.724 274.844C143.704 276.694 142.862 278.681 139.911 282.062C141.594 279.87 141.8 279.027 142.269 278.421ZM152.433 253.687C152.698 253.173 152.986 252.738 153.26 252.27C152.853 253.188 152.448 254.094 152.078 255.088C151.931 255.454 151.688 255.783 151.26 256.538C151.779 255.272 152.08 254.428 152.433 253.688V253.687ZM85.48 293.887C85.394 293.804 86.43 293.127 86.97 292.72C87.653 292.504 88.518 292.137 88.906 292.176C88.983 292.185 88.749 292.314 88.397 292.573C88.054 292.842 87.581 293.21 87.111 293.579C86.359 293.723 85.602 293.97 85.481 293.887H85.48ZM64.454 315.777C64.964 315.105 65.631 314.397 65.835 314.318C65.96 314.27 65.353 315.498 65.059 315.91C64.578 316.57 64.079 317.024 63.343 317.836C63.798 316.978 64.168 316.152 64.454 315.777ZM175.077 242.877C175.832 242.973 176.227 243.149 176.793 243.307C175.951 243.301 175.06 243.337 174.325 243.297C173.715 243.259 173.255 243.097 172.462 242.96C173.59 242.887 174.579 242.823 175.077 242.877ZM277.231 175.418C276.292 176.508 275.288 177.539 274.223 178.505C274.491 178.182 274.697 177.765 274.97 177.516C276.046 176.514 277.075 175.461 278.051 174.36C277.729 174.778 277.497 175.1 277.231 175.418ZM227.191 189.1C227.741 188.594 228.301 188.14 228.919 187.755C228.311 188.231 227.804 188.815 227.251 189.351C227.007 189.633 226.751 189.903 226.414 190.243C226.115 190.623 225.704 191.043 225.248 191.717C226.128 190.283 226.662 189.679 227.191 189.1ZM122.443 288.832C121.774 289.092 121.115 289.328 120.36 289.58C120.33 289.605 118.957 289.642 118.995 289.603C119.238 289.413 119.68 289.228 120.098 288.985L122.443 288.832ZM284.767 165.216C285.174 164.655 285.455 164.472 285.79 164.126C285.507 164.666 285.211 165.31 284.933 165.719C284.51 166.352 284.107 166.824 283.223 167.943C284.053 166.504 284.487 165.597 284.767 165.216ZM191.667 242.425C190.65 242.48 189.63 242.552 188.643 242.522C187.737 242.497 186.853 242.38 185.983 242.285C186.889 242.28 187.795 242.261 188.7 242.228C189.802 242.328 190.733 242.378 191.667 242.425ZM214.112 228.227C214.432 227.687 214.792 227.357 215.019 227.184C215.055 227.143 214.619 228.344 214.317 228.761C213.857 229.495 213.391 230.076 212.467 231.128C213.34 229.773 213.709 228.848 214.112 228.227ZM267.662 185.909C267.012 186.241 266.359 186.501 265.635 186.775C265.133 186.981 264.49 187.045 263.914 187.175L265.248 186.705L266.551 186.125C267.033 186.047 267.353 185.993 267.662 185.909ZM138.59 162.33C138.118 162.655 137.682 162.869 137.205 163.147C137.412 162.694 137.525 162.186 137.859 161.752C139.079 159.985 140.697 158.424 142.582 157.169C141.654 157.545 140.71 157.944 139.822 158.465C140.572 157.829 141.47 157.315 142.207 156.759C143.098 156.153 143.867 155.481 144.804 154.956C143.745 155.089 142.713 155.284 141.672 155.689C140 156.404 138.416 157.434 137.004 158.656C135.43 160.066 134.035 161.732 132.959 163.64C131.861 165.53 131.189 167.737 130.972 169.948C130.904 170.603 130.992 171.244 131.2 171.853C131.392 172.463 131.593 173.049 131.845 173.611C131.62 174.124 131.375 174.668 131.187 175.221C131.012 175.771 130.847 176.341 130.694 176.933L130.704 176.848C132.072 182.591 135.728 187.536 141.096 190.491C143.578 191.849 146.567 192.657 149.539 192.714C152.459 192.781 155.331 192.201 157.934 191.243C162.237 189.653 166.204 187.448 169.059 183.846C170.458 182.086 171.617 180.147 172.505 178.08C173.398 175.975 174.038 173.75 174.344 171.521C175.001 167.045 174.525 162.561 173.24 158.445C171.03 151.574 166.602 145.47 160.247 141.445C157.087 139.449 153.389 138.055 149.629 137.51C145.871 136.953 142.102 137.18 138.557 138.015C131.472 139.7 125.107 143.692 120.597 149.633C118.358 152.591 116.632 156.099 115.73 159.826C114.819 163.544 114.72 167.36 115.27 170.983C116.486 178.739 120.38 185.809 126.56 190.89C127.311 191.544 128.143 192.115 128.993 192.667C129.817 193.25 130.721 193.729 131.634 194.197C132.524 194.697 133.494 195.068 134.461 195.44C135.378 195.836 136.504 196.122 137.595 196.395C141.974 197.387 146.235 197.053 150.265 195.93C153.121 195.093 156.015 193.686 158.505 191.585C160.993 189.514 163.031 186.636 163.92 183.629C164.608 181.285 164.37 179.313 163.805 178.096C163.198 176.852 162.384 176.274 161.524 176.17C160.662 176.062 159.74 176.415 158.833 176.965C158.375 177.24 157.943 177.565 157.498 177.911C157.003 178.251 156.52 178.608 156.082 178.977C154.902 179.772 153.622 180.094 152.631 180.807C151.136 181.97 149.201 182.955 147.099 183.509C144.998 184.039 142.694 183.989 140.952 183.208C140.355 182.907 139.87 182.695 139.226 182.29C138.601 181.975 138.015 181.552 137.419 181.157C136.275 180.277 135.12 179.362 134.231 178.17C132.479 176.032 131.367 173.342 130.841 170.739C130.379 168.104 130.473 165.549 131.154 163.381C131.677 161.593 132.467 159.811 133.734 158.096C135.014 156.41 136.738 154.854 138.75 153.776C139.983 153.08 141.402 152.81 142.722 152.502C146.85 151.568 150.771 152.311 154.175 154.925C157.577 157.49 160.083 161.819 160.638 166.175C160.895 167.838 160.753 169.499 160.378 171.047C160.042 172.596 159.408 174.062 158.6 175.494C157 178.285 154.484 180.718 151.602 181.667C150.885 181.94 150.145 182.056 149.392 182.147C149.022 182.177 148.672 182.152 148.3 182.175C147.935 182.119 147.56 182.1 147.186 182.032C145.687 181.735 144.157 180.988 142.847 179.89C141.17 178.53 139.906 176.596 139.235 174.57C138.905 173.548 138.775 172.503 138.754 171.468C138.822 170.446 138.944 169.419 139.347 168.437C140.817 164.455 145.249 161.236 149.7 160.879C150.811 160.823 151.944 160.455 153.146 160.532C152.511 159.575 151.742 158.597 150.548 157.864C150.373 157.76 150.036 157.717 149.652 157.692C149.27 157.678 148.846 157.738 148.49 157.732C149.334 157.578 150.239 157.65 151.027 157.534C151.576 157.502 152.123 157.452 152.669 157.386L154.336 157.382C152.309 156.061 149.776 155.249 147.074 155.122C146.97 155.119 146.494 155.616 146.07 155.815L144.176 156.718L142.986 158.057C142.616 158.534 142.231 158.984 141.806 159.427C140.998 160.384 139.981 161.212 138.59 162.33ZM166.736 160.746C167.091 161.613 167.383 162.629 167.506 163.629C167.536 163.816 167.386 164.026 167.316 164.222C167.049 163.352 166.764 162.506 166.39 161.683C166.19 161.217 166.052 160.715 165.81 160.258C165.55 159.855 165.248 159.489 165.049 159.048C164.649 158.258 164.213 157.484 163.766 156.725C163.256 156.001 162.831 155.228 162.246 154.565C162.336 154.482 162.491 154.315 162.5 154.325C163.165 155.072 163.655 155.945 164.23 156.768C164.693 157.652 165.243 158.51 165.6 159.456C165.714 159.724 165.737 160.048 165.8 160.343C166.122 160.459 166.603 160.411 166.736 160.746ZM150.151 187.083C149.608 187.071 149.072 187.027 148.548 186.894C149.115 186.787 149.648 186.382 150.176 186.384C153.27 186.252 156.282 185.069 158.768 183.198C161.288 181.36 163.293 178.85 164.685 176.061C165.156 175.025 165.595 173.967 165.854 172.857C165.98 172.302 166.131 171.752 166.241 171.195L166.468 169.502C166.544 169.073 166.668 168.649 166.78 168.215C166.833 168.655 167.007 169.11 166.937 169.557L166.721 171.28C166.609 171.848 166.451 172.408 166.321 172.972C166.053 174.101 165.611 175.175 165.182 176.247C164.904 176.82 164.958 177.631 164.969 178.171C164.979 178.461 165.389 178.404 165.619 178.501C165.001 179.041 164.351 179.663 163.724 179.963C163.192 180.243 162.72 180.201 162.219 180.267C162.099 180.878 161.946 181.494 161.745 182.097C161.677 182.454 161.619 182.835 161.522 183.19L161.081 183.311C161.357 182.915 161.595 182.491 161.823 182.069C161.223 182.096 160.737 182.267 160.281 182.509C159.841 182.767 159.448 183.114 159.041 183.479C158.265 184.244 157.425 185.11 156.449 185.566L156.969 186.359C156.815 186.433 156.667 186.518 156.51 186.583C156.511 186.235 156.496 185.873 156.48 185.525C154.517 186.483 152.344 187.062 150.15 187.083H150.151ZM141.286 183.42C142.586 184.587 144.116 185.54 145.795 186.134C143.83 185.698 141.936 184.809 140.269 183.574C140.022 183.378 139.789 183.128 139.566 182.894C138.8 182.058 138.15 181.135 137.572 180.181C138.496 181.044 139.462 181.803 140.369 182.327C140.758 182.827 140.97 183.171 141.286 183.42ZM153.25 146.923L155.017 147.623C155.603 147.873 156.149 148.206 156.721 148.502C157.229 148.746 157.661 149.105 158.129 149.415C158.598 149.729 159.055 150.061 159.47 150.443C159.978 150.893 160.525 151.315 160.975 151.828C160.407 151.492 159.749 151.368 159.179 150.964C158.749 150.647 158.314 150.307 157.799 149.97C157.293 149.622 156.77 149.2 156.081 148.858C155.724 148.593 155.321 148.224 154.826 147.908L153.25 146.923ZM135.084 175.483C134.803 174.921 134.501 174.356 134.306 173.742C134.199 173.437 134.083 173.125 133.993 172.805C133.925 172.481 133.863 172.148 133.81 171.805C133.734 171.461 134.139 170.819 134.378 170.351C134.453 170.911 134.568 171.455 134.753 172.005L135.01 172.833L135.375 173.671C135.175 174.398 135.155 174.931 135.085 175.482L135.084 175.483ZM134.712 143.896C135.524 143.366 136.46 142.826 137.297 142.587C138.835 142.269 140.31 142.256 141.792 142.319C141.313 142.494 140.834 142.669 140.496 142.791C139.492 142.882 138.492 143.016 137.5 143.193C136.564 143.428 135.606 143.573 134.712 143.896ZM168.212 159.056C168.548 159.562 168.874 160.069 169.142 160.613C169.418 161.155 169.717 161.71 169.888 162.33C170.044 162.936 169.751 163.841 169.65 164.578C169.334 163.559 169.092 162.538 168.764 161.772C168.572 160.66 168.45 159.84 168.212 159.057V159.056ZM171.089 158.502C170.421 156.792 169.615 155.139 168.679 153.559C168.438 153.161 168.349 152.65 168.184 152.185L169.387 153.876C169.747 154.449 170.074 155.021 170.389 155.554C170.788 156.768 170.889 157.661 171.089 158.502ZM136.759 145.532C137.093 145.299 137.427 144.954 137.783 144.846C139.191 144.471 140.635 144.244 142.091 144.169C141.317 144.371 140.538 144.536 139.514 144.939C138.734 145.032 137.748 145.264 136.758 145.533L136.759 145.532ZM169.752 171.552C169.746 172.442 169.702 173.382 169.482 174.23C169.172 175.162 168.622 175.976 168.085 176.76C168.34 175.943 168.493 175.09 168.659 174.213C169.058 173.264 169.472 172.425 169.752 171.551V171.552ZM135.377 184.716C134.837 184.28 134.289 183.816 133.896 183.26C133.551 182.799 133.288 182.282 133.04 181.765C132.781 181.254 132.553 180.728 132.359 180.188C132.793 180.946 133.356 181.612 133.988 182.437C134.412 183.155 134.821 183.986 135.377 184.716ZM166.507 185.152C166.356 185.477 166.192 185.922 166 186.087C164.594 187.289 163.031 188.253 161.402 189.075C162.122 188.515 162.823 187.931 163.81 186.926C164.588 186.499 165.553 185.853 166.507 185.152ZM164.497 151.117C164.217 150.757 164.129 150.277 163.945 149.843C164.535 150.338 165.145 150.811 165.62 151.443C165.864 151.785 166.065 152.257 166.48 153.484C165.505 152.201 164.889 151.728 164.497 151.117ZM171.893 160.339C172.153 161.006 172.465 161.677 172.562 162.391C172.668 163.092 172.662 163.794 172.644 164.498C172.494 163.786 172.268 163.096 172.052 162.324C172.053 161.638 171.966 160.994 171.892 160.339H171.893ZM134.493 165.255C134.693 164.425 134.925 163.615 135.379 162.839C135.592 162.43 136.229 162.184 136.657 161.88C136.429 162.409 136.167 162.892 135.981 163.531L135.168 164.384L134.493 165.255ZM122.37 177.679L123.009 180.348C122.729 179.941 122.367 179.53 122.184 179.118C121.971 178.68 121.864 178.202 121.697 177.665C121.55 177.117 121.337 176.506 121.196 175.676C121.793 176.85 122.299 177.303 122.37 177.679ZM167.338 178.976C167.213 179.439 167.118 179.961 166.873 180.332C166.608 180.746 166.15 180.971 165.773 181.26C165.943 180.829 166.121 180.406 166.293 179.823C166.686 179.509 167.029 179.256 167.338 178.976ZM164.868 147.636C165.343 148.178 165.733 148.792 166.15 149.373C165.803 149.111 165.428 148.909 165.119 148.591C164.589 148.014 164.044 147.408 163.449 146.857L163.553 146.614C163.992 146.948 164.503 147.224 164.868 147.636ZM165.694 150.861C165.547 150.657 165.574 150.346 165.499 150.094C165.969 150.624 166.429 151.164 166.859 151.736C166.998 151.929 167.056 152.203 167.226 152.887C166.569 151.909 166.063 151.426 165.694 150.861ZM123.132 165.991C123.167 166.46 123.307 166.94 123.322 167.377C123.322 167.774 123.133 168.137 123.027 168.525L122.807 166.82C122.875 166.605 123.011 166.295 123.132 165.991ZM160.556 186.207C161.401 185.511 162.159 184.743 162.911 183.97C163.161 183.697 163.532 183.502 163.85 183.266L163.176 184.201C162.354 184.934 161.478 185.605 160.556 186.207ZM172.827 167.422C172.911 167.768 173.07 168.128 173.057 168.469C173.024 169.091 172.923 169.707 172.757 170.306C172.77 169.836 172.732 169.369 172.664 168.752L172.827 167.422ZM124.037 172.899C124.317 173.507 124.647 174.083 124.897 174.698C124.979 174.926 124.964 175.232 124.995 175.505C124.664 175.093 124.407 174.645 124.084 174.12C124.064 173.648 124.036 173.275 124.037 172.899ZM154.173 187.283C154.462 187.205 154.773 187.307 155.083 187.325C154.635 187.512 154.191 187.725 153.723 187.875C153.396 187.939 153.043 187.971 151.885 188.011C153.225 187.65 153.697 187.423 154.173 187.283ZM146.907 191.223L148.935 191.596C148.779 191.649 148.622 191.726 148.455 191.716C147.665 191.647 146.853 191.62 145.355 191.236C146.33 191.235 146.64 191.179 146.907 191.223ZM157.255 189.905C157.498 189.821 157.739 189.798 157.983 189.745C157.58 189.947 157.181 190.162 156.763 190.335C156.603 190.397 156.415 190.385 156.021 190.384C156.584 190.201 156.911 190.014 157.255 189.905ZM133.704 175.346C133.783 175.317 133.978 175.73 134.119 175.936C134.029 176.22 134.022 176.575 133.912 176.74C133.872 176.803 133.582 176.434 133.302 176.044C133.469 175.712 133.553 175.401 133.704 175.346ZM135.887 165.243C135.727 165.469 135.457 165.69 135.32 165.691C135.236 165.694 135.257 165.188 135.348 165.04C135.49 164.798 135.728 164.675 136.056 164.455C135.966 164.777 135.97 165.113 135.887 165.243ZM168.319 182.691C168.551 182.464 168.796 182.418 169.026 182.282C168.861 182.602 168.702 182.956 168.494 183.21C168.32 183.418 168.081 183.497 167.761 183.698C168.008 183.246 168.161 182.844 168.319 182.691ZM151.289 142.874C151.737 142.98 152.199 143.054 152.631 143.224C152.484 143.25 152.311 143.335 152.201 143.294C151.761 143.166 151.336 143.001 150.851 142.832C151.023 142.848 151.157 142.847 151.289 142.874ZM165.621 153.949C165.474 153.69 165.398 153.396 165.253 153.137C165.472 153.367 165.667 153.615 165.833 153.883C165.988 154.142 166.092 154.434 166.351 155.014C165.977 154.473 165.772 154.222 165.621 153.949ZM140.445 186.741C140.154 186.748 139.862 186.732 139.573 186.695C139.563 186.693 139.239 186.33 139.264 186.32C139.439 186.242 139.664 186.209 139.891 186.154C140.171 186.455 140.295 186.614 140.445 186.741ZM147.139 141.869C146.906 141.802 146.809 141.647 146.649 141.53C146.865 141.506 147.119 141.442 147.289 141.47C147.551 141.507 147.756 141.66 148.222 141.867C147.65 141.853 147.297 141.904 147.139 141.869ZM170.219 176.525C170.129 176.873 170.042 177.227 169.901 177.553C169.765 177.851 169.568 178.115 169.384 178.383L169.637 177.42C169.857 177.083 170.05 176.81 170.22 176.525H170.219ZM169.706 167.598C169.73 167.402 169.912 167.255 170.033 167.172C170.059 167.154 170.173 167.553 170.156 167.71C170.124 167.979 170.019 168.207 169.888 168.628C169.796 168.134 169.679 167.827 169.706 167.598ZM156.448 141.768C156.668 141.828 156.891 141.868 157.113 141.963C157.267 142.028 157.42 142.167 157.571 142.273L156.674 142.094L156.448 141.768ZM250.944 111.77C251.282 111.82 251.579 112.07 251.912 112.19C251.646 112.382 251.388 112.574 251.062 112.69C249.727 113.143 248.315 113.321 246.91 113.214C247.509 113.511 248.134 113.685 248.777 113.877C248.145 113.859 247.483 113.802 246.868 113.762C246.14 113.773 245.428 113.815 244.66 113.736C245.253 114.189 245.845 114.678 246.564 114.921C247.736 115.368 248.984 115.521 250.202 115.542C252.948 115.583 255.698 114.864 258.073 113.262C258.785 112.815 259.048 111.815 259.409 111.094C260.249 111.036 261.213 110.942 262.103 110.668L262.046 110.698C262.38 110.275 262.706 109.841 263.023 109.4C264.908 106.472 265.729 102.98 265.526 99.7184C265.326 96.2114 264.02 93.0424 262.414 90.1624C261.754 88.9494 261.079 87.7404 260.287 86.5474C259.467 85.3974 258.478 84.2184 257.262 83.3834C254.942 81.6834 252.263 80.5494 249.553 79.9354C246.836 79.3114 244.073 79.1754 241.378 79.4344C236.87 79.9154 232.475 81.4684 228.648 84.2444C224.847 86.9644 221.642 91.1764 220.215 95.7174C218.677 100.244 218.598 104.945 219.525 109.365C219.993 111.585 220.795 113.728 221.801 115.793C222.881 117.833 224.192 119.788 225.834 121.533C227.609 123.383 229.7 125.033 232.024 126.26C234.311 127.432 236.76 128.257 239.29 128.706C241.772 129.1 244.264 129.146 246.711 128.872C249.151 128.562 251.538 127.917 253.822 126.963C257.06 125.613 260.3 123.061 261.802 120.151C262.406 119.049 262.526 117.971 262.321 117.069C262.125 116.176 261.621 115.473 260.936 114.949C259.551 113.901 257.478 113.536 255.616 113.569C254.535 113.581 253.336 113.303 252.568 113.616C251.365 114.1 250.272 114.714 249.022 115.072C247.799 115.431 246.503 115.687 245.249 115.35C243.575 114.947 241.931 114.723 240.573 114.088C238.004 112.843 236.913 110.818 235.86 108.484C235.058 106.594 233.984 104.364 234.081 102.073C234.107 101.375 234.436 100.762 234.592 100.14C234.867 99.2197 235.282 98.3469 235.823 97.5524C236.393 96.7544 237.173 96.0284 238.073 95.3804C238.968 94.7194 240.052 94.2284 241.178 93.8604C242.315 93.478 243.505 93.2785 244.704 93.2694C246.55 93.2124 248.211 93.8464 249.726 94.4634C251.214 94.9904 252.676 96.0284 253.864 97.4684C255.019 98.8954 255.823 100.714 255.79 102.437C255.789 103.299 255.608 104.15 255.258 104.937C254.672 106.189 253.219 107.336 251.362 107.713C249.559 108.121 247.576 107.818 246.492 106.915C246.129 106.658 245.527 106.568 245.026 106.189C244.786 106.527 244.553 106.915 244.355 107.355C244.176 107.782 244.083 108.226 244.039 108.743C243.99 109.071 244.506 109.393 244.768 109.731C244.37 109.417 243.981 109.056 243.615 108.752C243.017 108.378 242.452 107.955 241.925 107.486C241.93 109.067 242.503 110.865 243.695 112.383C243.743 112.441 244.278 112.313 244.592 112.379L245.962 112.683C246.382 112.6 246.794 112.411 247.184 112.277L248.337 111.885C249.107 111.663 249.877 111.588 250.944 111.77ZM242.201 86.2584C242.745 86.1034 243.376 86.1034 243.971 86.0824C244.085 86.0874 244.191 86.2764 244.299 86.3824C243.764 86.4784 243.243 86.6804 242.725 86.8094C242.431 86.8824 242.128 86.9414 241.837 87.0394C241.577 87.1814 241.337 87.3724 241.06 87.4474C240.057 87.7454 239.061 88.0644 238.126 88.5084C238.077 88.3984 237.978 88.1964 237.986 88.1904C238.519 87.9414 239.058 87.6944 239.626 87.5234C240.185 87.3224 240.756 87.1414 241.343 87.0284C241.511 86.9904 241.705 87.0544 241.886 87.0704C241.981 86.7894 241.994 86.3364 242.201 86.2584ZM259.119 96.3964C259.219 96.7004 259.246 97.0264 259.304 97.3364C259.011 97.0904 258.57 96.9244 258.462 96.6334C257.039 93.2924 254.462 90.3814 251.098 88.9004C249.897 88.3054 248.587 87.9954 247.288 87.6914C247.036 87.6544 246.812 87.4644 246.568 87.3434C246.836 87.3014 247.116 87.1974 247.381 87.2294C248.721 87.4914 250.032 87.8994 251.294 88.4074C251.644 88.5454 252.194 88.3574 252.584 88.2134C252.785 88.1474 252.806 87.7894 252.906 87.5604C253.188 88.0254 253.531 88.4784 253.674 88.9284C253.8 89.3244 253.714 89.7204 253.686 90.1304C254.113 90.0864 254.556 90.0544 255.016 90.0364L255.832 89.9364L255.878 90.2494L255.003 89.9824C254.85 90.9754 255.256 91.3794 255.769 91.7804C256.309 92.1424 256.977 92.4814 257.341 93.0034L258.062 92.3904C258.125 92.4704 258.178 92.5554 258.232 92.6404L257.307 92.9944C258.037 94.0574 258.657 95.1954 259.119 96.3964ZM259.523 102.121C259.66 101.09 259.661 100.045 259.528 99.0134C259.946 100.131 260.178 101.33 260.254 102.573C260.257 102.762 260.209 102.96 260.168 103.149C260.108 103.481 259.997 103.803 259.883 104.119C259.773 104.437 259.671 104.754 259.512 105.051C259.527 104.67 259.462 104.281 259.42 103.922C259.386 103.583 259.323 103.247 259.23 102.919C259.363 102.571 259.51 102.356 259.523 102.121ZM232.073 91.9484C232.565 91.3924 233.048 90.8014 233.636 90.3204C234.117 89.8604 234.666 89.4844 235.223 89.1124C235.55 88.8704 235.903 88.6754 236.263 88.4904C236.017 88.8524 235.865 89.2764 235.567 89.5824C235.1 90.0244 234.507 90.3454 233.844 90.9624C233.348 91.1614 232.725 91.5574 232.074 91.9484H232.073ZM258.334 108.028C258.085 108.768 257.795 109.576 257.239 110.238C257.107 110.418 256.577 110.377 256.227 110.372C256.433 110.085 256.599 109.76 256.753 109.423C256.905 109.088 257.077 108.774 257.174 108.377C257.629 108.257 258.007 108.172 258.334 108.028ZM223.57 100.169C223.577 99.5724 223.471 98.8724 223.67 98.3634C224.068 97.4634 224.678 96.7184 225.27 95.9944C225.227 96.2824 225.204 96.5731 225.201 96.8644C224.509 97.9844 224.025 99.0574 223.571 100.169H223.57ZM241.31 84.4214C241.98 84.0494 242.66 83.6814 243.44 83.5394C243.817 83.4594 244.33 83.9164 244.757 84.1584C244.115 84.2384 243.488 84.3954 242.997 84.5254C242.438 84.4539 241.874 84.4191 241.31 84.4214ZM241.219 81.5194L239.543 81.8694L237.899 82.3324C237.619 82.4024 237.279 82.3034 236.968 82.3114C237.756 81.9274 238.584 81.6514 239.308 81.3644C240.123 81.4034 240.675 81.4704 241.219 81.5194ZM225.99 99.8394C225.939 99.5854 225.791 99.2854 225.859 99.0724C226.144 98.2324 226.569 97.4474 227.009 96.6984C226.852 97.1524 226.813 97.6444 226.682 98.2864C226.44 98.6974 226.224 99.2644 225.99 99.8394ZM248.961 84.4654C249.507 84.4654 250.11 84.3694 250.604 84.5834C251.154 84.8154 251.613 85.2064 252.062 85.6034C251.552 85.4784 251.016 85.4604 250.475 85.3894C249.994 85.0437 249.488 84.7348 248.961 84.4654ZM264.239 104.837C264.226 105.297 264.316 105.8 264.159 106.233C263.886 106.958 263.524 107.645 263.081 108.28C263.267 107.724 263.383 107.153 263.493 106.46C263.785 105.967 264.007 105.41 264.239 104.837ZM257.986 85.3104C258.224 85.3674 258.576 85.3804 258.689 85.5004C259.482 86.4124 260.132 87.3774 260.705 88.3604C260.261 87.9994 259.859 87.6124 259.128 87.0924C258.838 86.6024 258.464 85.9324 257.986 85.3104ZM236.002 85.1874C235.742 85.2874 235.406 85.1574 235.097 85.1374C235.481 84.8534 235.839 84.4964 236.29 84.3184C236.528 84.2154 236.88 84.2954 237.69 84.3064C236.803 84.7744 236.422 85.0424 236.002 85.1874ZM242.425 81.1634C242.861 81.0684 243.305 80.9144 243.747 80.9044C244.182 80.8954 244.613 81.0814 245.037 81.1804C244.589 81.2504 244.141 81.2824 243.654 81.3994L242.425 81.1634ZM254.091 112.866C253.661 113.196 253.236 113.558 252.7 113.71C252.428 113.786 252.026 113.588 251.693 113.453C252.016 113.292 252.319 113.05 252.663 112.817C253.183 112.884 253.633 112.883 254.091 112.866ZM233.154 121.252C233.576 121.685 233.883 122.222 234.285 122.677C233.979 122.597 233.642 122.499 233.409 122.327C232.807 121.846 232.262 121.298 231.784 120.693C232.544 121.053 232.984 121.079 233.154 121.252ZM253.475 85.9204C253.788 85.9324 254.147 85.9204 254.378 86.0734C254.63 86.2464 254.745 86.5834 254.91 86.8454C254.616 86.7994 254.322 86.7554 253.934 86.6964C253.769 86.3964 253.632 86.1414 253.475 85.9204ZM233.641 83.4404C234.053 83.2584 234.506 83.1764 234.937 83.0564C234.73 83.2474 234.564 83.4854 234.322 83.6184C233.896 83.8624 233.41 84.0084 232.974 84.2644L232.81 84.0744C233.073 83.8394 233.324 83.5724 233.641 83.4404ZM235.907 84.0294C235.757 84.0714 235.557 83.9484 235.38 83.9114C235.763 83.6924 236.163 83.5028 236.575 83.3444C236.712 83.2924 236.907 83.3704 237.355 83.4254C236.681 83.7094 236.305 83.9074 235.907 84.0294ZM230.414 114.197C230.629 114.38 230.897 114.531 231.031 114.749C231.163 114.94 231.133 115.227 231.18 115.479C230.973 115.272 230.724 115.099 230.454 114.773L230.414 114.197ZM258.194 89.8384C257.703 89.3904 257.151 89.0144 256.631 88.6024C256.458 88.4554 256.346 88.2044 256.191 88.0084C256.497 88.1344 256.788 88.2864 256.849 88.3234C257.459 88.9444 257.843 89.3794 258.195 89.8384H258.194ZM246.833 81.3004C247.053 81.2384 247.293 81.1014 247.501 81.1354C247.88 81.2004 248.235 81.3474 248.593 81.4894C248.302 81.4854 248.011 81.5174 247.626 81.5394L246.833 81.3004ZM233.149 117.223C233.509 117.393 233.877 117.534 234.206 117.737C234.326 117.81 234.365 118.039 234.446 118.197L233.482 117.914L233.149 117.223ZM258.869 93.9374C258.794 93.7784 258.882 93.5434 258.879 93.3464C259.081 93.5554 259.261 93.7814 259.414 94.0274C259.502 94.2014 259.565 94.4004 259.709 95.0804C259.249 94.4034 258.984 94.2084 258.869 93.9374ZM263.771 96.5964L263.569 95.4364C263.651 95.5014 263.773 95.5484 263.808 95.6374C263.985 96.0474 264.095 96.4924 264.323 97.3554C263.975 96.8774 263.803 96.7484 263.771 96.5964ZM261.211 91.0524C261.14 90.9174 261.123 90.7624 261.081 90.6154C261.251 90.8214 261.438 91.0184 261.587 91.2424C261.643 91.3274 261.617 91.4664 261.637 91.7084C261.449 91.4194 261.309 91.2424 261.21 91.0524H261.211ZM259.181 109.069C259.121 109.027 259.225 108.745 259.233 108.563C259.436 108.518 259.664 108.413 259.841 108.435C259.911 108.444 259.857 108.754 259.845 109.113C259.555 109.123 259.317 109.163 259.182 109.069H259.181ZM253.354 111.804C253.521 111.792 253.746 111.869 253.82 111.973C253.866 112.037 253.662 112.32 253.559 112.34C253.39 112.365 253.224 112.277 252.974 112.172C253.14 112.033 253.259 111.806 253.354 111.804ZM256.301 84.2894C256.158 84.1344 256.148 83.9354 256.079 83.7534C256.294 83.8374 256.548 83.8914 256.713 84.0204C256.85 84.1254 256.881 84.3184 256.996 84.5524C256.684 84.4374 256.397 84.3934 256.301 84.2894ZM228.442 91.0564L229 90.4234C228.999 90.5334 229.043 90.6914 228.99 90.7414C228.79 90.9364 228.556 91.0934 228.311 91.2944C228.359 91.1954 228.391 91.1194 228.442 91.0564ZM237.935 85.2564C237.76 85.3044 237.573 85.2914 237.389 85.3064C237.559 85.2144 237.722 85.0984 237.905 85.0384C238.078 84.9744 238.274 84.9854 238.665 84.9654C238.288 85.1004 238.115 85.2014 237.935 85.2564ZM262.701 101.399C262.86 101.544 263.019 101.689 263.171 101.86C263.176 101.867 263.078 102.16 263.055 102.151C262.887 102.088 262.727 101.985 262.548 101.889C262.625 101.638 262.663 101.518 262.701 101.399ZM226.62 92.9564C226.494 93.0514 226.332 93.0264 226.185 93.0544C226.227 92.9244 226.245 92.7514 226.319 92.6744C226.432 92.5504 226.585 92.4914 226.896 92.3414C226.732 92.6544 226.708 92.8944 226.62 92.9564ZM252.199 83.6284C252.419 83.6584 252.649 83.6854 252.847 83.7824C253.03 83.8694 253.177 84.0284 253.337 84.1564L252.721 84.0504C252.556 83.8991 252.382 83.7582 252.199 83.6284ZM246.562 84.4094C246.448 84.3754 246.382 84.1844 246.347 84.0594C246.339 84.0324 246.592 83.9434 246.685 83.9704C246.842 84.0174 246.966 84.1344 247.203 84.2864C246.895 84.3514 246.696 84.4484 246.562 84.4094ZM228.419 87.1394C228.498 87.0154 228.559 86.8794 228.663 86.7724C228.736 86.6974 228.865 86.6604 228.968 86.6084L228.707 87.1474L228.419 87.1394Z" fill="#7C7ADE"/>
</g>
<defs>
<clipPath id="clip0_31_10">
<rect width="646" height="485" fill="white"/>
</clipPath>
</defs>
</svg>
