<svg width="60" height="60" viewBox="0 0 60 60" fill="none" xmlns="http://www.w3.org/2000/svg">
<path d="M47.72 0H12.2798C5.49792 0 0 5.49792 0 12.2798V47.72C0 54.5021 5.49792 60 12.28 60H47.72C54.5021 60 60 54.5021 60 47.72V12.28C60 5.49792 54.5021 0 47.72 0ZM48.6682 36.8335C48.5446 37.0129 48.4083 37.1832 48.2606 37.3433L48.2478 37.3572C47.522 38.2225 46.7209 39.0218 45.8539 39.7454C39.7664 45.3721 29.7468 52.0708 28.4244 51.0373C27.2747 50.139 30.3179 45.745 26.8071 45.0137C26.5621 44.9855 26.3178 44.9555 26.0755 44.9211L26.0712 44.9209V44.9206C15.7596 43.4557 7.92927 36.243 7.92927 27.5656C7.92909 17.8307 17.7846 9.939 29.9418 9.939C42.0991 9.939 51.9546 17.8307 51.9546 27.5656C51.9265 30.9355 50.7695 34.1988 48.6682 36.8335Z" fill="#6563FF"/>
<path d="M31.1733 57.931C30.5044 57.9304 29.8632 57.674 29.3903 57.218C28.9173 56.7619 28.6514 56.1436 28.6507 55.4987V51.9072C23.7281 51.4493 19.0594 49.5843 15.2431 46.5512C11.4269 43.5181 8.63702 39.4552 7.23117 34.8832C5.82531 30.3113 5.86753 25.4386 7.35242 20.8899C8.8373 16.3413 11.6972 12.3238 15.5655 9.35264C19.4337 6.38146 24.1341 4.59194 29.064 4.21346C33.9939 3.83499 38.9287 4.88482 43.2358 7.22837C47.5429 9.57192 51.026 13.1024 53.2387 17.3672C55.4513 21.632 56.2926 26.4369 55.6547 31.1657C55.0327 37.4521 52.4012 43.3969 48.1238 48.1788C43.8464 52.9607 38.1343 56.3435 31.7768 57.8598C31.5794 57.907 31.3767 57.9309 31.1733 57.931V57.931Z" fill="#B2B1FF"/>
<path d="M25.1316 40.0215C24.4812 40.0215 23.9232 39.7788 23.4573 39.2934C22.9915 38.8079 22.7586 38.2263 22.7586 37.5485C22.7586 36.8707 22.9915 36.2891 23.4573 35.8036C23.9232 35.3182 24.4812 35.0754 25.1316 35.0754C25.782 35.0754 26.3401 35.3182 26.8059 35.8036C27.2717 36.2891 27.5046 36.8707 27.5046 37.5485C27.5046 37.9973 27.3948 38.4095 27.1751 38.785C26.9641 39.1606 26.6785 39.4628 26.3181 39.6918C25.9666 39.9116 25.5711 40.0215 25.1316 40.0215ZM25.1316 24.3588C24.4812 24.3588 23.9232 24.1161 23.4573 23.6307C22.9915 23.1452 22.7586 22.5636 22.7586 21.8858C22.7586 21.208 22.9915 20.6263 23.4573 20.1409C23.9232 19.6554 24.4812 19.4127 25.1316 19.4127C25.782 19.4127 26.3401 19.6554 26.8059 20.1409C27.2717 20.6263 27.5046 21.208 27.5046 21.8858C27.5046 22.3346 27.3948 22.7468 27.1751 23.1223C26.9641 23.4978 26.6785 23.8001 26.3181 24.0291C25.9666 24.2489 25.5711 24.3588 25.1316 24.3588Z" fill="#6563FF"/>
<path d="M39.3103 10.3448V45.5172H31.5058V42.8244H36.3573V13.0377H31.5058V10.3448H39.3103Z" fill="#6563FF"/>
<path d="M23.4573 23.6307C23.9232 24.1161 24.4812 24.3588 25.1316 24.3588C25.5711 24.3588 25.9666 24.2489 26.3181 24.0291C26.6785 23.8001 26.9641 23.4978 27.1751 23.1223C27.3948 22.7468 27.5046 22.3346 27.5046 21.8858C27.5046 21.208 27.2717 20.6263 26.8059 20.1409C26.3401 19.6554 25.782 19.4127 25.1316 19.4127C24.4812 19.4127 23.9232 19.6554 23.4573 20.1409C22.9915 20.6263 22.7586 21.208 22.7586 21.8858C22.7586 22.5636 22.9915 23.1452 23.4573 23.6307Z" fill="#6563FF"/>
</svg>
