<svg width="72" height="73" viewBox="0 0 72 73" fill="none" xmlns="http://www.w3.org/2000/svg">
<path d="M20.1851 58.1842C19.6447 57.7901 19.2772 57.2053 19.1632 56.5583C19.0492 55.9113 19.198 55.2549 19.5771 54.7331L21.6907 51.8294C17.9802 48.5622 15.3032 44.3068 14.0028 39.6087C12.7024 34.9105 12.8379 29.9838 14.392 25.4601C15.946 20.9363 18.8477 17.0217 22.7252 14.218C26.6026 11.4143 31.2791 9.8493 36.1551 9.72364C41.0312 9.59798 45.8845 10.9174 50.093 13.5127C54.3016 16.108 57.6735 19.861 59.7765 24.2905C61.8796 28.72 62.6179 33.6242 61.8969 38.3744C61.1759 43.1246 59.0284 47.5043 55.7297 50.9522C51.5272 55.6686 45.9011 58.9263 39.6287 60.2751C33.3562 61.6239 26.7472 60.9973 20.715 58.4817C20.5276 58.4037 20.3496 58.3038 20.1851 58.1842Z" fill="black"/>
<path d="M27.7758 45.5491C27.015 45.4279 26.4074 45.04 25.953 44.3854C25.4985 43.7307 25.3345 43.007 25.4608 42.2141C25.587 41.4213 25.9678 40.7843 26.6032 40.3032C27.2385 39.8222 27.9365 39.6422 28.6973 39.7634C29.4581 39.8846 30.0657 40.2725 30.5201 40.9271C30.9746 41.5818 31.1386 42.3055 31.0124 43.0984C30.9287 43.6234 30.7234 44.085 30.3964 44.4834C30.0797 44.8834 29.6893 45.1837 29.2251 45.3844C28.7729 45.5761 28.2898 45.631 27.7758 45.5491ZM30.6939 27.2278C29.9332 27.1066 29.3256 26.7187 28.8711 26.0641C28.4167 25.4094 28.2526 24.6857 28.3789 23.8928C28.5052 23.1 28.886 22.463 29.5213 21.982C30.1566 21.5009 30.8547 21.3209 31.6155 21.4421C32.3762 21.5633 32.9838 21.9512 33.4383 22.6058C33.8927 23.2605 34.0568 23.9842 33.9305 24.7771C33.8469 25.3021 33.6416 25.7637 33.3146 26.1621C32.9979 26.5621 32.6074 26.8624 32.1433 27.0631C31.6911 27.2548 31.208 27.3097 30.6939 27.2278Z" fill="white"/>
<path d="M28.8711 26.0641C29.3256 26.7187 29.9332 27.1066 30.6939 27.2278C31.208 27.3097 31.6911 27.2548 32.1433 27.0631C32.6074 26.8624 32.9979 26.5621 33.3146 26.1621C33.6416 25.7637 33.8469 25.3021 33.9305 24.7771C34.0568 23.9842 33.8927 23.2605 33.4383 22.6058C32.9838 21.9512 32.3762 21.5633 31.6155 21.4421C30.8547 21.3209 30.1566 21.5009 29.5213 21.982C28.886 22.463 28.5052 23.1 28.3789 23.8928C28.2526 24.6857 28.4167 25.4094 28.8711 26.0641Z" fill="white"/>
<path d="M37.9304 51C37.2467 51 36.7541 50.8486 36.4524 50.5459C36.1508 50.2633 36 49.8799 36 49.3955C36 48.7093 36.1609 48.2148 36.4826 47.9121C36.7842 47.6094 37.2869 47.458 37.9907 47.458H41.6102C41.8113 45.7425 42.0727 43.6738 42.3944 41.252C42.7363 38.8301 42.9776 37.054 43.1183 35.9238C43.9227 30.293 44.4555 26.1758 44.7169 23.5723H41.5499C40.7657 23.5723 40.2026 23.4512 39.8608 23.209C39.5189 22.9466 39.348 22.5329 39.348 21.9678C39.348 21.3421 39.529 20.8578 39.891 20.5147C40.2529 20.1716 40.8561 20 41.7007 20L46.3457 20.0303C48.1152 20.0303 49 20.7871 49 22.3008C49 22.4219 48.9799 22.6439 48.9397 22.9668C48.075 30.0508 46.9389 38.4971 45.5313 48.3057C45.3705 49.335 45.0588 50.0413 44.5963 50.4248C44.1338 50.8083 43.3194 51 42.1531 51H37.9304Z" fill="white"/>
</svg>
